<svg width="73" height="36" viewBox="0 0 73 36" fill="none" xmlns="http://www.w3.org/2000/svg">
<path d="M15.856 35.6C15.5573 35.6 15.296 35.264 15.072 34.592C14.848 33.92 14.736 33.2107 14.736 32.464C14.736 30.0373 16.3973 25.464 19.72 18.744C19.3467 18.8187 18.8427 18.912 18.208 19.024C17.6107 19.136 16.752 19.304 15.632 19.528C13.3547 19.976 11.5627 20.2933 10.256 20.48C8.98667 20.6667 7.904 20.76 7.008 20.76C5.328 20.76 4.488 19.92 4.488 18.24C4.488 18.2027 4.52533 18.1467 4.6 18.072C5.12267 18.2213 5.776 18.3333 6.56 18.408C7.344 18.4827 8.296 18.52 9.416 18.52C10.7227 18.52 12.2533 18.464 14.008 18.352C15.7627 18.24 17.8347 18.0533 20.224 17.792L23.192 11.632C24.424 9.056 25.04 6.872 25.04 5.08C25.04 2.504 23.6027 1.216 20.728 1.216C18.264 1.216 15.0347 2.168 11.04 4.072C7.04533 5.976 3.90933 8.06667 1.632 10.344C1.66933 10.3067 1.632 10.3253 1.52 10.4C1.44533 10.4373 1.37067 10.456 1.296 10.456C0.773333 10.456 0.512 9.93333 0.512 8.888C0.512 7.61867 1.856 6.29333 4.544 4.912C7.19467 3.53067 10.144 2.41067 13.392 1.552C16.64 0.693332 19.1973 0.263999 21.064 0.263999C25.32 0.263999 27.448 2.168 27.448 5.976C27.448 7.73067 27.2053 9.168 26.72 10.288C26.4587 10.848 25.9733 11.7253 25.264 12.92C24.592 14.1147 23.6587 15.6453 22.464 17.512C23.5093 17.3253 24.3307 17.176 24.928 17.064C25.5253 16.952 25.8987 16.896 26.048 16.896C26.4213 16.896 26.608 16.9707 26.608 17.12C26.608 17.456 26.0293 17.68 24.872 17.792L22.016 18.352C17.76 25.184 15.632 30.1493 15.632 33.248L15.912 35.32C15.912 35.5067 15.8933 35.6 15.856 35.6ZM33.594 10.456C32.7727 10.456 32.1007 10.232 31.578 9.784C32.2873 9.29867 33.034 8.664 33.818 7.88C34.6393 7.096 35.4793 6.16267 36.338 5.08C36.4127 5.08 36.45 5.17333 36.45 5.36L36.17 6.984C35.9833 8.14133 35.6473 9.01867 35.162 9.616C34.6767 10.176 34.154 10.456 33.594 10.456ZM28.218 30.84C26.7993 30.84 26.09 29.8133 26.09 27.76C26.09 24.6613 27.21 20.5733 29.45 15.496C29.45 15.3467 29.5433 15.0667 29.73 14.656C29.954 14.2453 30.122 13.984 30.234 13.872C30.4953 13.6107 30.85 13.48 31.298 13.48C32.6047 13.48 33.314 13.7413 33.426 14.264C32.8287 15.2347 32.25 16.3547 31.69 17.624C31.1673 18.8933 30.6447 20.2933 30.122 21.824C29.562 23.4667 29.1513 24.8293 28.89 25.912C28.666 26.9573 28.554 27.7973 28.554 28.432C28.554 29.3653 28.7967 29.832 29.282 29.832C29.618 29.832 30.0473 29.6267 30.57 29.216C30.9807 28.88 31.2607 28.6373 31.41 28.488C31.5967 28.3387 31.7647 28.208 31.914 28.096C32.0633 28.096 32.138 28.1707 32.138 28.32C32.138 28.7307 31.5967 29.2533 30.514 29.888C29.4313 30.5227 28.666 30.84 28.218 30.84ZM46.3904 32.072C44.7104 32.072 43.8704 30.728 43.8704 28.04C43.8704 26.4347 44.4678 23.5787 45.6624 19.472C44.8784 21.0027 44.1131 22.384 43.3664 23.616C42.6571 24.8107 41.8918 25.9493 41.0704 27.032C39.3904 29.2347 37.9531 30.336 36.7584 30.336C36.0118 30.336 35.2464 29.8693 34.4624 28.936C33.7158 28.0027 33.3424 27.1627 33.3424 26.416C33.3424 24.064 34.5931 21.2453 37.0944 17.96C39.6331 14.6 41.8918 12.92 43.8704 12.92C44.4304 12.92 45.0091 13.088 45.6064 13.424C46.2784 13.7227 46.6144 14.0773 46.6144 14.488C46.6144 14.7867 46.4464 14.936 46.1104 14.936L44.9904 14.32C43.7211 14.32 41.7611 16.2053 39.1104 19.976C36.4971 23.7093 35.1904 26.3413 35.1904 27.872C35.1904 28.432 35.3211 28.712 35.5824 28.712C35.9558 28.712 36.6278 28.3013 37.5984 27.48C38.5691 26.6587 39.8758 25.296 41.5184 23.392C43.1984 21.4507 44.8971 19.248 46.6144 16.784C47.0624 15.776 47.5478 14.6187 48.0704 13.312C48.6304 11.968 49.3024 10.3627 50.0864 8.496C50.1238 8.42133 50.2544 8.08533 50.4784 7.488C50.7398 6.89067 51.0198 6.21867 51.3184 5.472C51.6544 4.72533 51.9344 4.072 52.1584 3.512C52.3824 2.952 52.4944 2.65333 52.4944 2.616C52.4944 2.01867 52.1211 1.72 51.3744 1.72L49.4704 2.112C49.2091 2.112 49.0784 2 49.0784 1.776C49.0784 1.17867 49.9184 0.879998 51.5984 0.879998C54.1744 0.879998 55.4624 1.75733 55.4624 3.512C55.4624 4.072 54.3051 6.72266 51.9904 11.464C50.7584 13.8907 49.8624 15.7013 49.3024 16.896C48.7798 18.0533 48.4998 18.6693 48.4624 18.744C46.4838 23.112 45.4944 26.584 45.4944 29.16C45.4944 30.6907 45.8678 31.456 46.6144 31.456L48.2944 30.84L48.4624 30.896C48.4624 31.1573 48.1824 31.4187 47.6224 31.68C47.0998 31.9413 46.6891 32.072 46.3904 32.072ZM52.1243 30.448C51.3776 30.448 50.687 30.112 50.0523 29.44C49.455 28.7307 49.1563 27.8347 49.1563 26.752C49.1563 25.6693 49.8096 23.9893 51.1163 21.712C52.423 19.472 54.0283 17.456 55.9323 15.664C57.799 13.9093 59.4043 13.032 60.7483 13.032H61.3083C62.6896 13.032 63.8656 13.312 64.8363 13.872C65.807 14.3947 66.2923 15.104 66.2923 16C66.2923 16.4107 66.1243 16.616 65.7883 16.616C65.6763 16.616 65.6203 16.56 65.6203 16.448C65.023 15.0667 64.1083 14.376 62.8763 14.376C60.7483 14.376 58.3216 16.1307 55.5963 19.64C52.871 23.0747 51.5083 25.7253 51.5083 27.592C51.5083 28.3013 51.695 28.656 52.0683 28.656C53.7483 28.656 57.2763 24.8667 62.6523 17.288C62.615 17.3253 62.6336 17.3253 62.7083 17.288C62.8203 17.2133 62.9136 17.176 62.9883 17.176C63.175 17.176 63.567 17.3627 64.1643 17.736C64.7616 18.072 65.0603 18.3707 65.0603 18.632C65.0603 18.632 64.9856 18.7627 64.8363 19.024C64.687 19.248 64.5003 19.6027 64.2763 20.088C63.679 21.3573 63.2123 22.608 62.8763 23.84C62.5776 25.0347 62.4283 26.08 62.4283 26.976C62.4283 28.9547 62.9136 29.944 63.8843 29.944L64.4443 29.832L64.5563 29.888C64.5563 30.224 64.0896 30.392 63.1563 30.392C62.2603 30.392 61.5136 29.9813 60.9163 29.16C60.3563 28.3013 60.0763 27.1627 60.0763 25.744C60.0763 24.3627 60.319 22.832 60.8043 21.152C60.767 21.264 60.6363 21.4693 60.4123 21.768C60.1883 22.0667 59.8336 22.5893 59.3483 23.336C56.287 28.0773 53.879 30.448 52.1243 30.448ZM70.0868 30.168C69.5641 30.168 69.3028 29.9627 69.3028 29.552C69.3028 29.4027 69.3214 29.2347 69.3588 29.048C69.3961 28.824 69.4147 28.6 69.4147 28.376C69.4147 27.9653 69.6201 27.6293 70.0308 27.368C70.4414 27.0693 70.9081 26.92 71.4308 26.92C71.8788 26.92 72.2148 27.1067 72.4388 27.48C72.6628 27.8533 72.7748 28.208 72.7748 28.544C72.7748 28.768 72.5881 29.0107 72.2148 29.272C71.8788 29.5333 71.4868 29.7573 71.0388 29.944C70.6281 30.0933 70.3108 30.168 70.0868 30.168Z" fill="white"/>
</svg>
