<svg width="34" height="38" viewBox="0 0 34 38" fill="none" xmlns="http://www.w3.org/2000/svg">
<path d="M31.0493 10.109C31.0493 10.109 31.0493 10.1091 31.0493 10.1091C30.6172 10.1091 30.2028 10.2805 29.8972 10.5861C29.5916 10.8917 29.4199 11.3058 29.4199 11.7379C29.4199 12.17 29.5916 12.5844 29.897 12.89C30.2025 13.1956 30.617 13.3673 31.049 13.3673C31.4811 13.3673 31.8953 13.1956 32.2008 12.89C32.5064 12.5847 32.6781 12.1702 32.6781 11.7382C32.6776 11.3064 32.5059 10.8922 32.2006 10.5868C31.8953 10.2815 31.4811 10.1096 31.0493 10.109C31.0493 10.109 31.0493 10.109 31.0493 10.109ZM31.0493 12.4835C31.0493 12.4836 31.0492 12.4838 31.049 12.4838C30.7475 12.4837 30.4757 12.3022 30.3603 12.0238C30.2449 11.7451 30.3088 11.4245 30.5218 11.2113C30.7351 10.998 31.0556 10.9341 31.3344 11.0495C31.6129 11.165 31.7946 11.4366 31.7946 11.7382C31.794 12.1497 31.461 12.4831 31.0496 12.4837C31.0494 12.4837 31.0493 12.4836 31.0493 12.4835Z" fill="url(#paint0_linear_902_9388)" stroke="url(#paint1_linear_902_9388)" stroke-width="0.0504914"/>
<path d="M12.1174 6.11924C12.1174 6.11923 12.1174 6.11922 12.1174 6.11922C12.6265 6.11947 13.1145 5.91751 13.4746 5.55777C13.8348 5.19801 14.0371 4.70991 14.0373 4.20083C14.0373 3.6917 13.8354 3.20365 13.4753 2.84362C13.1156 2.4836 12.6275 2.28137 12.1184 2.28137C11.6095 2.28111 11.1212 2.48334 10.7615 2.84335C10.4014 3.20311 10.1992 3.69121 10.1992 4.20029C10.1997 4.70889 10.4017 5.19673 10.7615 5.55649C11.1209 5.91624 11.6088 6.11873 12.1174 6.11926C12.1174 6.11926 12.1174 6.11925 12.1174 6.11924ZM12.1173 3.16466C12.1173 3.16481 12.1175 3.16492 12.1176 3.16492C12.3923 3.16473 12.6557 3.2736 12.85 3.46761C13.0443 3.66169 13.1535 3.92519 13.1537 4.19974C13.1537 4.47428 13.0449 4.73779 12.8505 4.93213C12.6565 5.12647 12.3932 5.2356 12.1184 5.2356C11.8439 5.23587 11.5804 5.12673 11.386 4.93239C11.1919 4.73832 11.0828 4.47481 11.0828 4.20027C11.0831 3.92599 11.1919 3.66274 11.386 3.46868C11.5798 3.27467 11.8429 3.16528 12.117 3.16495C12.1172 3.16495 12.1173 3.16482 12.1173 3.16466Z" fill="url(#paint2_linear_902_9388)" stroke="url(#paint3_linear_902_9388)" stroke-width="0.0504914"/>
<path d="M19.5338 17.2715C19.5338 17.2715 19.5338 17.2715 19.5338 17.2715C19.5336 16.7629 19.3313 16.2751 18.9716 15.9153C18.6116 15.5558 18.1237 15.3539 17.6152 15.3541C17.1063 15.3541 16.6185 15.5564 16.259 15.9161C15.8992 16.2759 15.6973 16.764 15.6973 17.2725C15.6975 17.7811 15.8995 18.2689 16.2592 18.6287C16.619 18.9885 17.1068 19.1904 17.6156 19.1904C18.1242 19.1899 18.6118 18.9874 18.9716 18.6277C19.3311 18.2679 19.5333 17.7801 19.5338 17.2715C19.5338 17.2715 19.5338 17.2715 19.5338 17.2715ZM17.6157 18.3069C17.3409 18.3071 17.0774 18.1982 16.883 18.0042C16.6887 17.8101 16.5796 17.5466 16.5793 17.272C16.5793 16.9975 16.6882 16.734 16.8822 16.5396C17.0766 16.3453 17.3398 16.2362 17.6146 16.2362C17.8892 16.2359 18.1527 16.345 18.3468 16.5391C18.5411 16.7335 18.6502 16.9967 18.6502 17.2715C18.65 17.5461 18.5411 17.809 18.347 18.0031C18.153 18.1974 17.89 18.3066 17.6154 18.3068L17.6157 18.3069Z" fill="url(#paint4_linear_902_9388)" stroke="url(#paint5_linear_902_9388)" stroke-width="0.0504914"/>
<path d="M4.95136 12.1145C4.95135 12.1145 4.95136 12.1145 4.95137 12.1145C5.46048 12.1147 5.94852 11.9125 6.30855 11.5528C6.66856 11.193 6.87105 10.7049 6.87105 10.1961C6.87132 9.68696 6.66935 9.19864 6.30933 8.83888C5.94958 8.47886 5.46148 8.27637 4.9524 8.27637C4.44354 8.27637 3.95522 8.4786 3.59519 8.83835C3.23543 9.19837 3.0332 9.68647 3.0332 10.1953C3.03373 10.7041 3.23596 11.1917 3.59545 11.5515C3.95493 11.9112 4.44274 12.1137 4.95135 12.1145C4.95136 12.1145 4.95137 12.1145 4.95136 12.1145ZM4.95133 9.15993C4.95133 9.15992 4.95134 9.15992 4.95135 9.15992C5.22589 9.15966 5.48939 9.26853 5.68373 9.46287C5.87807 9.65694 5.98747 9.92019 5.98747 10.1947C5.98773 10.4695 5.87886 10.733 5.68452 10.9274C5.49044 11.1215 5.2272 11.2309 4.9524 11.2309C4.67785 11.2309 4.41434 11.1217 4.22 10.9277C4.02592 10.7336 3.91679 10.4701 3.91679 10.1953C3.91705 9.92097 4.02592 9.65773 4.22 9.46367C4.41381 9.2696 4.67705 9.16046 4.95131 9.15993C4.95131 9.15993 4.95132 9.15993 4.95133 9.15993Z" fill="url(#paint6_linear_902_9388)" stroke="url(#paint7_linear_902_9388)" stroke-width="0.0504914"/>
<path d="M33.8347 11.6299C33.8347 11.6299 33.8347 11.6299 33.8347 11.6299C33.74 10.1719 32.5487 9.03012 31.1229 9.03012C30.5591 9.03124 30.0128 9.21079 29.5603 9.53895C29.4309 9.6328 29.2506 9.63065 29.1343 9.521C27.7225 8.19043 25.9908 7.04291 24.0833 6.17971C21.8147 5.1528 19.4559 4.61033 17.2624 4.6103C17.2623 4.6103 17.2623 4.61025 17.2623 4.61017C17.2623 4.6101 17.2622 4.61004 17.2622 4.61004C16.7875 4.61438 16.3134 4.63845 15.8409 4.68213C15.6436 4.70037 15.4787 4.53077 15.4819 4.33266C15.4833 4.24585 15.4811 4.15897 15.4753 4.07225C15.3612 2.31482 13.9267 0.938354 12.2099 0.938354C10.4933 0.938354 9.05855 2.31468 8.94458 4.07132C8.94457 4.07139 8.94451 4.07145 8.94444 4.07145C8.94436 4.07145 8.9443 4.0715 8.9443 4.07158C8.90357 4.87542 9.14577 5.66829 9.6291 6.31199C9.67751 6.37671 9.65807 6.46921 9.588 6.50949C8.9051 6.90205 8.24376 7.3308 7.60651 7.79365C7.4818 7.88423 7.30987 7.86776 7.19542 7.76452C6.60715 7.23381 5.84104 6.93573 5.0425 6.93313C3.32552 6.93313 1.89103 8.31007 1.77712 10.0662C1.73609 10.8704 1.97856 11.6633 2.46192 12.307L2.87469 12.8589C2.94437 12.9521 2.95438 13.0767 2.90194 13.1805C1.70635 15.5482 1.00004 18.3941 1.00004 20.8879C0.993988 23.7465 1.74138 26.5561 3.16719 29.0339C4.59307 31.5117 6.64666 33.5697 9.12101 35.0006C11.5956 36.4317 14.4037 37.1851 17.2622 37.1851C20.1208 37.1851 22.9289 36.4317 25.4035 35.0006C27.8778 33.5697 29.9314 31.5117 31.3573 29.0339C32.7832 26.5564 33.5305 23.7468 33.5244 20.8879C33.5244 19.1257 33.0881 16.5072 32.5097 14.7176C32.4791 14.6228 32.4956 14.5191 32.5552 14.4394L33.2667 13.4881C33.6722 12.9566 33.8737 12.2973 33.8348 11.6299C33.8348 11.6299 33.8347 11.6299 33.8347 11.6299ZM9.8264 4.12959C9.82639 4.12957 9.82638 4.12955 9.82638 4.12952C9.90004 2.99556 10.8121 1.82197 12.2102 1.82197C13.6085 1.82197 14.5202 2.99539 14.5941 4.13064C14.6267 4.7247 14.4455 5.31113 14.0832 5.78292L12.4529 7.96373C12.3317 8.12581 12.0888 8.12581 11.9676 7.96374L10.3405 5.78743C9.98078 5.31171 9.79881 4.72531 9.82641 4.12966C9.82641 4.12964 9.82641 4.12962 9.8264 4.12959ZM2.65928 10.1244C2.65929 10.1244 2.6593 10.1244 2.6593 10.1243C2.73295 8.99037 3.64497 7.81678 5.04289 7.81678C6.44109 7.81678 7.35274 8.99007 7.42675 10.1253C7.42676 10.1254 7.42681 10.1255 7.42689 10.1256C7.42698 10.1257 7.42703 10.1258 7.42703 10.1259C7.45986 10.7199 7.27841 11.306 6.91606 11.778L5.28556 13.9588C5.16439 14.1209 4.92143 14.1209 4.80028 13.9588L3.17337 11.7822C2.81363 11.3068 2.63191 10.7201 2.65925 10.1245C2.65925 10.1244 2.65926 10.1244 2.65928 10.1244ZM3.58136 13.8039C3.58131 13.8039 3.5813 13.804 3.58133 13.804L4.68945 15.2855C4.77282 15.3973 4.90404 15.4628 5.04342 15.4628C5.18253 15.4628 5.31376 15.3973 5.39712 15.2855L7.62346 12.3073C8.01766 11.7935 8.25433 11.1763 8.30482 10.5307C8.34824 9.97255 8.25095 9.41387 8.02365 8.90517C7.96216 8.76757 7.99678 8.60269 8.11869 8.51407C8.73151 8.06863 9.36764 7.65645 10.0246 7.27908C10.1562 7.20348 10.3232 7.23924 10.4141 7.3608L11.8566 9.29039C11.9399 9.40188 12.0712 9.46763 12.2103 9.46763C12.3497 9.46763 12.4809 9.40189 12.5642 9.29039L14.7908 6.3122C14.9124 6.14992 15.0198 5.97765 15.1119 5.79718C15.1598 5.70341 15.2489 5.63625 15.3534 5.6235C15.421 5.61526 15.4884 5.60731 15.5556 5.59977C15.6651 5.5875 15.772 5.63703 15.8348 5.72756L17.5886 8.25798C17.8037 8.56672 17.9144 8.93591 17.905 9.31224C17.8955 9.6883 17.7661 10.0514 17.536 10.3491L17.0119 11.0297C16.7516 11.3663 16.3332 11.5401 15.9108 11.4873L15.3163 11.4113H15.3165C14.8976 11.3576 14.4721 11.4281 14.0929 11.6143C13.7137 11.8005 13.3979 12.094 13.184 12.4582C13.0639 12.6636 12.8858 12.8287 12.6723 12.9336C12.4587 13.0388 12.2192 13.0785 11.983 13.0485L10.6103 12.8739H10.6105C10.1998 12.8205 9.78269 12.8829 9.40535 13.0535C9.02824 13.2242 8.70608 13.4967 8.47523 13.8401C8.25907 14.1594 8.14072 14.5346 8.13494 14.9202C8.12889 15.3057 8.23566 15.6844 8.44183 16.0102L9.34859 17.4434C9.6881 17.9772 10.2774 18.2999 10.9099 18.2989C11.2115 18.2991 11.5084 18.2244 11.774 18.0819L12.7075 17.5812C13.1649 17.3358 13.9077 17.3335 14.4431 17.5541C14.4432 17.5541 14.4432 17.5541 14.4432 17.5541C14.4433 17.5541 14.4434 17.5542 14.4435 17.5543C14.4945 18.2159 14.7317 18.8496 15.1274 19.3823L17.3543 22.3616C17.4377 22.4731 17.5689 22.5388 17.7083 22.5388C17.8474 22.5388 17.9786 22.4731 18.062 22.3616L19.0456 21.0458C19.1181 20.9489 19.2637 20.9497 19.335 21.0475C19.3958 21.1324 19.461 21.2158 19.5288 21.2957L20.6627 22.6313C20.6627 22.6313 20.6628 22.6313 20.6628 22.6313C20.6628 22.6312 20.6628 22.6312 20.6629 22.6313C20.7649 22.7517 20.8132 22.9084 20.7966 23.0653C20.7801 23.2223 20.6999 23.3654 20.5747 23.4616L18.8564 24.7831C18.3991 25.1334 18.0628 25.6177 17.8942 26.1684L17.3214 28.0279C17.2762 28.1747 17.2026 28.3109 17.1045 28.4287L16.5473 29.0995C16.5473 29.0995 16.5472 29.0996 16.5472 29.0997C16.5472 29.0998 16.5472 29.0999 16.5472 29.0999C16.132 29.5988 15.8751 30.2099 15.8091 30.8554C15.7762 31.1752 15.5713 31.4516 15.275 31.576C15.1514 31.6278 15.0109 31.6202 14.8936 31.5552C14.7763 31.4905 14.6954 31.3756 14.6735 31.2433L14.1486 28.0906C14.1486 28.0906 14.1486 28.0905 14.1485 28.0905C14.1484 28.0905 14.1484 28.0904 14.1483 28.0904C14.0828 27.6986 13.923 27.3287 13.6826 27.0125L11.7592 24.4882C11.5862 24.2618 11.4587 24.0044 11.3827 23.7298L10.7478 21.4377C10.5196 20.6209 9.87999 19.9832 9.06243 19.7578L8.92437 19.7202C8.64509 19.6437 8.38895 19.4998 8.17804 19.3015L6.99412 18.1857C6.80556 18.008 6.64383 17.8039 6.51392 17.5799C6.23832 17.1049 5.82125 16.7278 5.32105 16.5012C4.82087 16.2747 4.26228 16.21 3.7235 16.3163C3.70641 16.3197 3.68931 16.3242 3.67248 16.3294L2.48623 16.7152C2.48621 16.7152 2.4862 16.7152 2.4862 16.7152C2.4862 16.7153 2.48626 16.7153 2.48627 16.7153C2.76316 15.7137 3.12944 14.7395 3.58145 13.804C3.58148 13.8039 3.58142 13.8039 3.58136 13.8039ZM15.3244 17.2005C15.3243 17.2005 15.3242 17.2004 15.3242 17.2004C15.3979 16.0664 16.3099 14.8929 17.7078 14.8929C19.106 14.8929 20.0177 16.0662 20.0917 17.2014C20.0917 17.2015 20.0917 17.2016 20.0918 17.2016C20.0919 17.2016 20.092 17.2016 20.092 17.2017C20.1248 17.796 19.9436 18.3821 19.581 18.8539L17.9507 21.0347C17.8296 21.1967 17.5866 21.1968 17.4654 21.0347L15.8384 18.8584C15.4786 18.3827 15.2969 17.7963 15.3245 17.2007C15.3245 17.2006 15.3244 17.2006 15.3244 17.2005ZM32.641 20.8878C32.6408 20.8881 32.6408 20.8883 32.6408 20.8886C32.6408 29.377 25.7421 36.282 17.2624 36.282C8.78255 36.282 1.88408 29.3761 1.88408 20.8875C1.8908 19.8816 1.99745 18.8793 2.20182 17.8946C2.22367 17.7894 2.30083 17.7045 2.40304 17.6713L3.91928 17.1779C4.27429 17.1133 4.64063 17.1598 4.96829 17.311C5.29596 17.4622 5.56893 17.7107 5.74983 18.0229C5.9226 18.3211 6.13771 18.5922 6.3886 18.8287L7.57242 19.9441C7.57246 19.9441 7.57252 19.9441 7.57252 19.944C7.57252 19.944 7.57258 19.944 7.57261 19.944C7.88896 20.2416 8.27338 20.457 8.69228 20.5719L8.83035 20.6095C9.34762 20.7523 9.75232 21.156 9.89646 21.673L10.5313 23.9656C10.637 24.3485 10.8153 24.708 11.0564 25.0239L12.9798 27.5482C13.1331 27.7499 13.2352 27.9858 13.277 28.2359L13.8019 31.3887C13.8676 31.7876 14.1122 32.1345 14.4662 32.3298C14.8201 32.5252 15.2441 32.5476 15.6167 32.3906C15.9083 32.2683 16.1619 32.0695 16.3504 31.8152C16.5387 31.5612 16.6552 31.2608 16.6878 30.9461C16.7359 30.4745 16.9237 30.0283 17.2266 29.6638L17.7838 28.993C17.7838 28.993 17.7839 28.9929 17.784 28.9929C17.7841 28.9929 17.7842 28.9929 17.7842 28.9928C17.9567 28.7854 18.0866 28.5456 18.1657 28.2876L18.7382 26.4281C18.8531 26.0526 19.0827 25.722 19.3943 25.4832L21.1137 24.1618C21.4303 23.9183 21.6336 23.5554 21.6756 23.158C21.7177 22.7607 21.5952 22.3633 21.3367 22.0588L20.2027 20.7231C20.1506 20.6616 20.1004 20.5974 20.0515 20.5293L19.8508 20.2542C19.7881 20.1682 19.7888 20.0515 19.8526 19.9663L20.2889 19.3828C20.2889 19.3828 20.2889 19.3828 20.2889 19.3829C20.2889 19.3829 20.289 19.3829 20.289 19.3829C20.7778 18.742 21.0208 17.9471 20.9737 17.1427C20.8596 15.3855 19.4251 14.0088 17.7084 14.0088C16.2668 14.0088 15.0251 14.9792 14.5958 16.33C14.5424 16.498 14.3677 16.602 14.1943 16.57C13.5358 16.4481 12.8136 16.5223 12.2903 16.8027L11.3567 17.3034C10.9139 17.5387 10.3648 17.3941 10.0953 16.9712L9.18851 15.5378C9.07438 15.3574 9.01521 15.1475 9.01837 14.934C9.02179 14.7202 9.08727 14.5124 9.20693 14.3354C9.34683 14.1274 9.5417 13.9625 9.76996 13.8592C9.99822 13.7561 10.2507 13.7185 10.4992 13.7508L11.8719 13.9252C12.2796 13.9773 12.6932 13.9084 13.0622 13.7272C13.4309 13.546 13.7383 13.2604 13.9461 12.9059C14.072 12.6908 14.2585 12.5175 14.4823 12.4076C14.7061 12.2974 14.9572 12.2558 15.2046 12.2874L15.799 12.3634C16.5324 12.4554 17.26 12.153 17.7121 11.5682L18.2362 10.8876C18.5813 10.4419 18.7751 9.89752 18.7893 9.3337C18.8035 8.77014 18.6373 8.21656 18.3151 7.75399L17.0448 5.92163C16.9195 5.74099 17.0429 5.4932 17.2627 5.4932C19.3318 5.4932 21.5644 6.00863 23.7195 6.98425C24.3043 7.24962 24.875 7.54538 25.429 7.87C25.5715 7.95351 25.6178 8.13682 25.5346 8.2795L24.4977 10.0569C24.3276 10.3554 24.2547 10.6993 24.2889 11.0412C24.3234 11.3833 24.4633 11.706 24.6892 11.9648C25.0302 12.3553 25.5033 12.6064 26.0182 12.6696L26.2333 12.6961C26.4416 12.7219 26.6381 12.8076 26.7985 12.9428C26.9591 13.0782 27.077 13.2571 27.1377 13.458C27.1953 13.6489 27.1969 13.8522 27.1424 14.0439C27.0883 14.2359 26.9802 14.4081 26.8311 14.5404L24.7 16.4248C24.7 16.4248 24.6999 16.4249 24.6998 16.4249C24.6997 16.4249 24.6996 16.4249 24.6996 16.4249C24.2628 16.8115 24.0125 17.3669 24.0125 17.9504V18.4506C24.0112 19.0525 24.3168 19.6139 24.8233 19.9398C25.0744 20.101 25.2377 20.3684 25.2667 20.6656L25.3166 21.1646C25.3166 21.1646 25.3166 21.1647 25.3165 21.1647C25.3164 21.1647 25.3164 21.1648 25.3164 21.1648C25.3556 21.569 25.5439 21.9439 25.8449 22.2166C26.1458 22.4891 26.5376 22.6397 26.9436 22.6387H28.1912C28.7079 22.6384 29.2134 22.4877 29.6459 22.205C30.0785 21.9223 30.4193 21.5197 30.6268 21.0464L30.7017 20.8755C30.7017 20.8755 30.7018 20.8755 30.7018 20.8756C30.7018 20.8756 30.7018 20.8756 30.7018 20.8756C30.7752 20.706 30.8948 20.5609 31.047 20.4562C31.1993 20.3518 31.3779 20.2921 31.5625 20.2843L31.8552 20.2711C31.9028 20.269 31.9504 20.2656 31.9977 20.2608L32.3053 20.2299C32.4768 20.2127 32.6286 20.3418 32.6345 20.5141C32.6389 20.6426 32.6412 20.7673 32.6412 20.8871C32.6412 20.8874 32.6411 20.8876 32.641 20.8878ZM32.5463 19.3172L31.9089 19.3813C31.8779 19.3845 31.8466 19.3866 31.815 19.3882L31.5218 19.4016H31.5221C31.1726 19.416 30.8346 19.5289 30.5464 19.7269C30.2582 19.9249 30.0315 20.2 29.8924 20.5208L29.8175 20.6916C29.8175 20.6917 29.8175 20.6916 29.8175 20.6916C29.8175 20.6916 29.8174 20.6916 29.8174 20.6916C29.6788 21.0076 29.4514 21.2766 29.1624 21.4654C28.8736 21.6542 28.536 21.755 28.1909 21.7552H26.9434C26.5563 21.756 26.2323 21.4623 26.1952 21.077L26.1453 20.5776C26.0903 20.0128 25.7797 19.5042 25.3022 19.1975C25.0482 19.034 24.8948 18.7526 24.8956 18.4504V17.9505C24.8956 17.6202 25.0374 17.3057 25.2846 17.0869L27.4156 15.2025C27.4157 15.2024 27.4158 15.2024 27.4158 15.2024C27.4159 15.2024 27.416 15.2024 27.4161 15.2023C27.6914 14.9577 27.8912 14.6396 27.9916 14.2851C28.0921 13.9306 28.0889 13.5548 27.983 13.2022C27.8722 12.8374 27.6584 12.5127 27.3671 12.2673C27.0754 12.0217 26.7191 11.8663 26.3409 11.8192L26.126 11.7926C26.1259 11.7926 26.1258 11.7927 26.1257 11.7928C26.1256 11.7928 26.1255 11.7929 26.1254 11.7929C25.8265 11.756 25.5517 11.6103 25.3537 11.3834C25.1386 11.1378 25.1023 10.7831 25.2627 10.4985L26.2666 8.77776C26.3546 8.62688 26.5518 8.58129 26.6951 8.6813C27.3718 9.15379 28.0122 9.67636 28.611 10.2445C28.7113 10.3397 28.7304 10.4907 28.6717 10.6159C28.5225 10.934 28.4339 11.278 28.4113 11.6298C28.3772 12.2967 28.5781 12.9545 28.9788 13.4883L30.7691 15.882C30.7692 15.8821 30.7692 15.8822 30.7692 15.8823C30.7692 15.8824 30.7692 15.8824 30.7693 15.8825C30.8529 15.994 30.9838 16.0597 31.1232 16.0597C31.2623 16.0597 31.3935 15.9939 31.4769 15.8824C31.6111 15.7029 31.8919 15.7563 31.9468 15.9736C32.2246 17.0725 32.425 18.1897 32.5464 19.3171C32.5464 19.3171 32.5464 19.3172 32.5463 19.3172ZM32.5595 12.9584L31.3655 14.5548C31.2443 14.7168 31.0014 14.7168 30.8803 14.5547L29.6899 12.9626C29.4127 12.5968 29.2723 12.1455 29.2931 11.6869C29.3499 10.8152 30.0499 9.91338 31.1231 9.91338C32.1963 9.91338 32.8967 10.8152 32.9532 11.6879C32.9782 12.145 32.8386 12.5957 32.5595 12.9584L32.5595 12.9584Z" fill="url(#paint8_linear_902_9388)" stroke="url(#paint9_linear_902_9388)" stroke-width="0.0504914"/>
<defs>
<linearGradient id="paint0_linear_902_9388" x1="28.8291" y1="10.109" x2="33.1242" y2="10.205" gradientUnits="userSpaceOnUse">
<stop stop-color="#0091FF"/>
<stop offset="1" stop-color="white" stop-opacity="0.81"/>
</linearGradient>
<linearGradient id="paint1_linear_902_9388" x1="28.8291" y1="10.109" x2="33.1242" y2="10.205" gradientUnits="userSpaceOnUse">
<stop stop-color="#0091FF"/>
<stop offset="1" stop-color="white" stop-opacity="0.81"/>
</linearGradient>
<linearGradient id="paint2_linear_902_9388" x1="9.5033" y1="2.28137" x2="14.5627" y2="2.39444" gradientUnits="userSpaceOnUse">
<stop stop-color="#0091FF"/>
<stop offset="1" stop-color="white" stop-opacity="0.81"/>
</linearGradient>
<linearGradient id="paint3_linear_902_9388" x1="9.5033" y1="2.28137" x2="14.5627" y2="2.39444" gradientUnits="userSpaceOnUse">
<stop stop-color="#0091FF"/>
<stop offset="1" stop-color="white" stop-opacity="0.81"/>
</linearGradient>
<linearGradient id="paint4_linear_902_9388" x1="15.0016" y1="15.3541" x2="20.059" y2="15.4672" gradientUnits="userSpaceOnUse">
<stop stop-color="#0091FF"/>
<stop offset="1" stop-color="white" stop-opacity="0.81"/>
</linearGradient>
<linearGradient id="paint5_linear_902_9388" x1="15.0016" y1="15.3541" x2="20.059" y2="15.4672" gradientUnits="userSpaceOnUse">
<stop stop-color="#0091FF"/>
<stop offset="1" stop-color="white" stop-opacity="0.81"/>
</linearGradient>
<linearGradient id="paint6_linear_902_9388" x1="2.33733" y1="8.27637" x2="7.39642" y2="8.38942" gradientUnits="userSpaceOnUse">
<stop stop-color="#0091FF"/>
<stop offset="1" stop-color="white" stop-opacity="0.81"/>
</linearGradient>
<linearGradient id="paint7_linear_902_9388" x1="2.33733" y1="8.27637" x2="7.39642" y2="8.38942" gradientUnits="userSpaceOnUse">
<stop stop-color="#0091FF"/>
<stop offset="1" stop-color="white" stop-opacity="0.81"/>
</linearGradient>
<linearGradient id="paint8_linear_902_9388" x1="-4.95442" y1="0.938367" x2="38.3387" y2="1.81491" gradientUnits="userSpaceOnUse">
<stop stop-color="#0091FF"/>
<stop offset="1" stop-color="white" stop-opacity="0.81"/>
</linearGradient>
<linearGradient id="paint9_linear_902_9388" x1="-4.95442" y1="0.938367" x2="38.3387" y2="1.81491" gradientUnits="userSpaceOnUse">
<stop stop-color="#0091FF"/>
<stop offset="1" stop-color="white" stop-opacity="0.81"/>
</linearGradient>
</defs>
</svg>
