<svg width="62" height="43" viewBox="0 0 62 43" fill="none" xmlns="http://www.w3.org/2000/svg">
<g opacity="0.2">
<path d="M61.8968 5.45996V37.5403L42.207 24.9372C42.7445 24.329 43.2113 23.7773 43.5366 23.3389C45.3331 21.0898 46.5919 18.1052 46.3373 15.4177L60.9355 6.06792L61.8968 5.45996Z" fill="white"/>
<path d="M61.8405 40.185C61.5576 41.7834 60.1714 42.9999 58.5023 42.9999H4.1858C2.51673 42.9999 1.11639 41.7835 0.847656 40.185L22.0505 26.6201C24.9643 29.6189 29.0097 33.0419 31.3579 32.8156C33.7059 33.056 37.7372 29.633 40.6653 26.6201L61.8405 40.185Z" fill="white"/>
<path d="M41.784 21.9244C38.9126 25.5031 33.7921 30.5528 31.345 30.5528C28.8979 30.5528 23.7774 25.5031 20.906 21.9244C18.7277 19.1945 17.5253 15.2621 19.6896 13.2535C22.7449 10.3962 26.9742 12.4331 28.4594 13.4091C30.3406 14.6256 32.4483 14.6256 34.2446 13.395C36.8613 11.5985 40.6947 10.9762 42.9862 13.2677C45.0797 15.3329 43.9622 19.1944 41.7839 21.9244L41.784 21.9244Z" fill="white"/>
<path d="M61.8396 2.81531L45.6856 13.1552C45.4169 12.6177 45.0491 12.1227 44.5823 11.6558C43.0971 10.1707 38.981 7.68117 32.9552 11.5285C31.9085 12.2075 30.8052 12.2358 29.6877 11.5144C26.2222 9.27953 21.2998 8.45909 18.0888 11.67C17.622 12.1368 17.2684 12.6318 16.9855 13.1694L0.845703 2.81536C1.10032 1.23112 2.58551 -0.0136288 4.18384 0.000467602H58.5004C60.1129 -0.0278223 61.5981 1.23107 61.8385 2.81536L61.8396 2.81531Z" fill="white"/>
<path d="M20.4808 24.9377L0.791016 37.5408V5.46045L16.3501 15.4185C16.0955 18.106 17.3544 21.0905 19.1508 23.3396C19.4761 23.7781 19.9287 24.3298 20.4804 24.938L20.4808 24.9377Z" fill="white"/>
</g>
</svg>
