<svg width="34" height="30" viewBox="0 0 34 30" fill="none" xmlns="http://www.w3.org/2000/svg">
<mask id="path-1-outside-1_902_9411" maskUnits="userSpaceOnUse" x="8.08594" y="4.7937" width="18" height="17" fill="black">
<rect fill="white" x="8.08594" y="4.7937" width="18" height="17"/>
<path d="Mnan nanL10.1757 11.7179H12.589C12.8047 11.7179 12.9196 11.848 12.9196 11.9629V19.4396C12.9196 19.5571 12.8042 19.6871 12.589 19.6871H10.1757C9.96133 19.6871 9.84617 19.5576 9.84617 19.4396V11.9629C9.84617 11.8475 9.96132 11.7179 10.1757 11.7179Lnan nanZM18.8904 7.03523C18.8904 7.03523 18.8904 7.03524 18.8904 7.03528C19.0892 7.3724 19.1732 8.0198 19.1732 8.86822V11.3209C19.1732 11.5305 19.3427 11.7002 19.5525 11.7002H23.6779C23.8849 11.7002 24.042 11.8075 24.1319 12.034C24.222 12.2577 24.1922 12.5762 24.0337 12.832C23.8743 13.087 23.6271 13.2208 23.4195 13.2208C22.9188 13.2272 22.9188 13.9754 23.4195 13.9815C23.6271 13.9815 23.7844 14.0888 23.8746 14.313C23.9622 14.5388 23.9349 14.8577 23.7761 15.1135C23.6168 15.3688 23.367 15.5049 23.1602 15.5049C22.6615 15.5112 22.6615 16.2574 23.1602 16.2655C23.367 16.2655 23.5266 16.37 23.6142 16.594C23.7044 16.8205 23.6753 17.1369 23.516 17.3925C23.3567 17.6478 23.1094 17.7842 22.9021 17.7842C22.7749 17.7842 22.6744 17.8394 22.6089 17.9207C22.3368 18.2576 22.9509 18.6663 22.8695 19.0916C22.8093 19.4055 22.5645 19.6884 22.2403 19.6884L16.4725 19.6886C15.8862 19.6886 15.4943 19.5985 14.9602 19.2889C14.1676 18.8282 13.6799 17.9806 13.6798 17.0639L13.6797 15.1303C13.6797 13.6213 14.2854 12.1754 15.3611 11.117L16.5121 9.98465C17.4484 9.06269 17.5724 7.88772 17.7169 7.13118C17.8762 6.30422 18.6223 6.57891 18.8903 7.03517C18.8903 7.03521 18.8903 7.03523 18.8904 7.03523ZM18.1192 5.79737C18.1192 5.79739 18.1192 5.79742 18.1192 5.79742C17.5662 5.84138 17.0824 6.31434 16.9693 7.0062C16.841 7.78898 16.7114 8.72205 15.9781 9.444L14.6564 10.7431C14.2102 11.1817 13.2145 10.9568 12.5888 10.9568H10.1755C9.60104 10.9568 9.08594 11.3843 9.08594 11.9624V19.4391C9.08594 20.0197 9.60108 20.4467 10.1755 20.4467H12.5888C12.8008 20.4467 13.0046 20.3888 13.1774 20.2867C13.5747 20.0521 14.1773 19.7193 14.5792 19.9459C15.2089 20.3108 15.794 20.4472 16.4728 20.4472H22.2759C22.7956 20.4472 23.2274 20.1265 23.4629 19.6911C23.8291 19.0142 24.1472 18.085 24.3585 17.3449C24.3861 17.2481 24.4052 17.1497 24.4157 17.0512C24.4871 16.3811 24.6157 15.4337 24.6827 14.7632C24.7534 14.0558 24.8628 13.2001 24.9338 12.4928C25.0118 11.7163 24.5605 10.9401 23.6776 10.9401H22.0049C20.8609 10.9401 19.9335 10.0127 19.9335 8.86871C19.9335 7.98063 19.8833 7.23444 19.5502 6.65639C19.2209 6.08673 18.672 5.75494 18.1192 5.79733C18.1192 5.79733 18.1192 5.79735 18.1192 5.79737Z"/>
</mask>
<path d="M24.1319 12.034L23.2598 12.3801L23.2616 12.3847L24.1319 12.034ZM24.0337 12.832L24.8294 13.3291L24.8311 13.3263L24.0337 12.832ZM23.4195 13.2208V12.2825L23.4077 12.2826L23.4195 13.2208ZM23.4195 13.9815L23.4081 14.9197H23.4195V13.9815ZM23.8746 14.313L24.7493 13.9735L24.7451 13.963L23.8746 14.313ZM23.7761 15.1135L24.5721 15.6103L24.5732 15.6084L23.7761 15.1135ZM23.1602 15.5049V14.5666L23.1483 14.5667L23.1602 15.5049ZM23.1602 16.2655L23.145 17.2037L23.1526 17.2038H23.1602V16.2655ZM23.6142 16.594L22.7404 16.9359L22.7425 16.941L23.6142 16.594ZM23.516 17.3925L24.312 17.8893L24.3122 17.8889L23.516 17.3925ZM22.2403 19.6884V18.7501H22.2402L22.2403 19.6884ZM16.4725 19.6886V20.6269H16.4726L16.4725 19.6886ZM16.5121 9.98465L17.1701 10.6535L17.1704 10.6532L16.5121 9.98465ZM17.7169 7.13118L16.7955 6.95367L16.7953 6.95518L17.7169 7.13118ZM16.9693 7.0062L17.8952 7.15794L17.8952 7.1576L16.9693 7.0062ZM15.9781 9.444L16.6358 10.1132L16.6364 10.1126L15.9781 9.444ZM19.5502 6.65639L20.3632 6.18796L20.3625 6.18685L19.5502 6.65639ZM24.4157 17.0512L25.3487 17.1505L24.4157 17.0512ZM23.4629 19.6911L22.6377 19.2447L23.4629 19.6911ZM24.3585 17.3449L23.4562 17.0874L24.3585 17.3449ZM14.6564 10.7431L13.9987 10.0739L14.6564 10.7431ZM18.1192 5.79742L18.0448 4.8621L18.1192 5.79742ZM18.1192 5.79733L18.0475 4.8618L18.1192 5.79733ZM18.8904 7.03528L19.6988 6.55884L18.8904 7.03528ZM15.3611 11.117L14.7031 10.4482L15.3611 11.117ZM13.1774 20.2867L13.6545 21.0946L13.1774 20.2867ZM18.8903 7.03517L18.0812 7.51026L18.8903 7.03517ZM10.1757 12.6562H12.589V10.7797H10.1757V12.6562ZM12.589 12.6562C12.4443 12.6562 11.9813 12.5111 11.9813 11.9629H13.8578C13.8578 11.1849 13.165 10.7797 12.589 10.7797V12.6562ZM11.9813 11.9629V19.4396H13.8578V11.9629H11.9813ZM11.9813 19.4396C11.9813 18.8984 12.4386 18.7488 12.589 18.7488V20.6254C13.1697 20.6254 13.8578 20.2157 13.8578 19.4396H11.9813ZM12.589 18.7488H10.1757V20.6254H12.589V18.7488ZM10.1757 18.7488C10.3283 18.7488 10.7844 18.9001 10.7844 19.4396H8.9079C8.9079 20.215 9.59433 20.6254 10.1757 20.6254V18.7488ZM10.7844 19.4396V11.9629H8.9079V19.4396H10.7844ZM10.7844 11.9629C10.7844 12.5103 10.322 12.6562 10.1757 12.6562V10.7797C9.60065 10.7797 8.9079 11.1847 8.9079 11.9629H10.7844ZM18.0821 7.51171C18.082 7.51141 18.0975 7.53895 18.1186 7.61024C18.139 7.67947 18.1599 7.77389 18.1782 7.8973C18.215 8.14598 18.235 8.47044 18.235 8.86822H20.1115C20.1115 8.41757 20.0895 7.99413 20.0345 7.62273C19.9821 7.2683 19.889 6.88168 19.6988 6.55884L18.0821 7.51171ZM18.235 8.86822V11.3209H20.1115V8.86822H18.235ZM18.235 11.3209C18.235 12.0483 18.8241 12.6384 19.5525 12.6384V10.7619C19.8613 10.7619 20.1115 11.0127 20.1115 11.3209H18.235ZM19.5525 12.6384H23.6779V10.7619H19.5525V12.6384ZM23.6779 12.6384C23.6122 12.6384 23.5044 12.6185 23.3996 12.5429C23.3 12.471 23.2651 12.3935 23.2598 12.3801L25.004 11.6879C24.9088 11.448 24.7503 11.2036 24.498 11.0214C24.2404 10.8355 23.9505 10.7619 23.6779 10.7619V12.6384ZM23.2616 12.3847C23.249 12.3534 23.2456 12.3317 23.2446 12.3228C23.2435 12.3135 23.2443 12.3108 23.2439 12.3141C23.2435 12.3171 23.2426 12.322 23.2407 12.3275C23.2389 12.3329 23.237 12.3363 23.2362 12.3376L24.8311 13.3263C25.1257 12.8511 25.2184 12.22 25.0022 11.6833L23.2616 12.3847ZM23.2379 12.3348C23.2345 12.3404 23.2377 12.3322 23.2579 12.3199C23.274 12.3102 23.3266 12.2826 23.4195 12.2826V14.1591C24.0048 14.1591 24.5294 13.8093 24.8294 13.3291L23.2379 12.3348ZM23.4077 12.2826C23.0293 12.2874 22.6795 12.4421 22.4335 12.7216C22.2022 12.9845 22.1057 13.3076 22.1057 13.6012C22.1057 13.8949 22.2022 14.218 22.4336 14.4809C22.6797 14.7605 23.0298 14.9151 23.4082 14.9197L23.4309 13.0432C23.5589 13.0448 23.7212 13.1036 23.8421 13.2409C23.9484 13.3617 23.9823 13.4962 23.9823 13.6012C23.9823 13.7063 23.9484 13.8407 23.8422 13.9613C23.7215 14.0986 23.5594 14.1574 23.4314 14.159L23.4077 12.2826ZM23.4195 14.9197C23.3547 14.9197 23.2483 14.9001 23.1445 14.8258C23.0457 14.7549 23.01 14.678 23.004 14.663L24.7451 13.963C24.649 13.7238 24.4896 13.4811 24.2377 13.3005C23.9808 13.1164 23.6919 13.0432 23.4195 13.0432V14.9197ZM22.9999 14.6525C22.9893 14.6252 22.9866 14.6071 22.9859 14.6008C22.9852 14.5941 22.9858 14.5932 22.9853 14.5972C22.9849 14.6011 22.9839 14.6061 22.9822 14.611C22.9814 14.6134 22.9806 14.6152 22.98 14.6166C22.9794 14.6179 22.979 14.6186 22.979 14.6186L24.5732 15.6084C24.8732 15.1253 24.9531 14.4986 24.7493 13.9735L22.9999 14.6525ZM22.9801 14.6167C22.977 14.6218 22.9795 14.6148 22.9977 14.6037C23.0112 14.5955 23.0639 14.5666 23.1602 14.5666V16.4432C23.7471 16.4432 24.2734 16.0887 24.5721 15.6103L22.9801 14.6167ZM23.1483 14.5667C22.77 14.5715 22.4203 14.7265 22.1747 15.0061C21.9438 15.2689 21.8479 15.5916 21.8479 15.8845C21.8479 16.1775 21.9438 16.4996 22.1738 16.7623C22.4183 17.0415 22.7668 17.1975 23.145 17.2037L23.1754 15.3274C23.3043 15.3294 23.4658 15.3892 23.5856 15.526C23.6909 15.6462 23.7244 15.7799 23.7244 15.8845C23.7244 15.9891 23.6908 16.1235 23.5846 16.2445C23.4637 16.3821 23.301 16.4415 23.1721 16.4431L23.1483 14.5667ZM23.1602 17.2038C23.1003 17.2038 22.9956 17.1863 22.8909 17.1124C22.7888 17.0403 22.7495 16.9591 22.7404 16.9358L24.488 16.2522C24.3913 16.005 24.2284 15.7595 23.9729 15.5792C23.7148 15.397 23.4269 15.3272 23.1602 15.3272V17.2038ZM22.7425 16.941C22.7312 16.9126 22.728 16.893 22.7271 16.8846C22.7261 16.876 22.7268 16.8733 22.7265 16.876C22.7262 16.8784 22.7254 16.8826 22.7238 16.8873C22.7222 16.8919 22.7205 16.8949 22.7198 16.8961L24.3122 17.8889C24.6109 17.4098 24.6987 16.7816 24.486 16.2471L22.7425 16.941ZM22.72 16.8957C22.7156 16.9028 22.7175 16.8959 22.7366 16.8842C22.7514 16.8752 22.8053 16.8459 22.9021 16.8459V18.7224C23.4931 18.7224 24.0156 18.3642 24.312 17.8893L22.72 16.8957ZM22.9021 16.8459C22.4811 16.8459 22.116 17.0375 21.8789 17.3312L23.3388 18.5101C23.2328 18.6414 23.0687 18.7224 22.9021 18.7224V16.8459ZM21.9479 18.9151C21.9507 18.9005 21.9576 18.8773 21.9883 18.8464C22.025 18.8094 22.1127 18.7501 22.2403 18.7501V20.6267C23.1638 20.6267 23.6778 19.8591 23.791 19.2682L21.9479 18.9151ZM22.2402 18.7501L16.4725 18.7504L16.4726 20.6269L22.2403 20.6267L22.2402 18.7501ZM16.4725 18.7504C16.0371 18.7504 15.8099 18.697 15.4307 18.4772L14.4896 20.1007C15.1786 20.5 15.7353 20.6269 16.4725 20.6269V18.7504ZM14.6181 17.0638L14.618 15.1302L12.7415 15.1303L12.7416 17.0639L14.6181 17.0638ZM16.0192 11.7859L17.1701 10.6535L15.8541 9.31582L14.7031 10.4482L16.0192 11.7859ZM17.1704 10.6532C18.3582 9.48364 18.5121 7.96901 18.6385 7.30719L16.7953 6.95518C16.6327 7.80642 16.5386 8.64175 15.8538 9.31609L17.1704 10.6532ZM18.6382 7.30869C18.652 7.23696 18.654 7.31736 18.5432 7.41313C18.4184 7.5209 18.2707 7.54503 18.1759 7.5362C18.0986 7.529 18.0695 7.50396 18.0787 7.51035C18.0848 7.51464 18.0864 7.51926 18.0812 7.51026L19.6994 6.56008C19.4451 6.12706 18.949 5.72351 18.3498 5.66773C18.015 5.63657 17.6342 5.71857 17.3163 5.99316C17.0124 6.25575 16.8614 6.61193 16.7955 6.95367L18.6382 7.30869ZM18.0448 4.8621C16.9761 4.94706 16.2112 5.82749 16.0433 6.8548L17.8952 7.1576C17.9535 6.80118 18.1563 6.7357 18.1935 6.73274L18.0448 4.8621ZM16.0433 6.85446C15.906 7.69266 15.8002 8.30248 15.3199 8.77539L16.6364 10.1126C17.6227 9.14163 17.776 7.8853 17.8952 7.15794L16.0433 6.85446ZM15.3204 8.77484L13.9987 10.0739L15.3141 11.4122L16.6358 10.1132L15.3204 8.77484ZM12.5888 10.0185H10.1755V11.8951H12.5888V10.0185ZM10.1755 10.0185C9.18547 10.0185 8.14767 10.7691 8.14767 11.9624H10.0242C10.0242 11.9601 10.0244 11.9599 10.0242 11.9608C10.024 11.9617 10.0238 11.9621 10.0239 11.9618C10.0243 11.9611 10.028 11.9536 10.0403 11.9426C10.068 11.9179 10.1176 11.8951 10.1755 11.8951V10.0185ZM8.14767 11.9624V19.4391H10.0242V11.9624H8.14767ZM8.14767 19.4391C8.14767 20.634 9.18455 21.3849 10.1755 21.3849V19.5084C10.1174 19.5084 10.068 19.4856 10.0406 19.4611C10.0285 19.4503 10.0248 19.4428 10.0243 19.4419C10.0241 19.4414 10.0242 19.4416 10.0243 19.4421C10.0245 19.4427 10.0242 19.442 10.0242 19.4391H8.14767ZM10.1755 21.3849H12.5888V19.5084H10.1755V21.3849ZM12.5888 21.3849C12.9707 21.3849 13.339 21.2809 13.6545 21.0946L12.7004 19.4787C12.6701 19.4966 12.6308 19.5084 12.5888 19.5084V21.3849ZM14.1088 20.7578C14.8933 21.2123 15.6431 21.3854 16.4728 21.3854V19.5089C15.9449 19.5089 15.5245 19.4093 15.0495 19.1341L14.1088 20.7578ZM16.4728 21.3854H22.2759V19.5089H16.4728V21.3854ZM22.2759 21.3854C23.2091 21.3854 23.9244 20.8101 24.2882 20.1375L22.6377 19.2447C22.5304 19.443 22.3821 19.5089 22.2759 19.5089V21.3854ZM25.2607 17.6025C25.303 17.4541 25.3325 17.3028 25.3487 17.1505L23.4827 16.9518C23.478 16.9965 23.4692 17.042 23.4562 17.0874L25.2607 17.6025ZM25.8674 12.5866C25.9264 11.9995 25.791 11.3728 25.4228 10.8705C25.0372 10.3446 24.4257 10.0018 23.6776 10.0018V11.8784C23.7574 11.8784 23.8031 11.895 23.8286 11.9081C23.8553 11.9218 23.8826 11.9435 23.9094 11.9801C23.968 12.06 24.0193 12.2096 24.0003 12.399L25.8674 12.5866ZM23.6776 10.0018H22.0049V11.8784H23.6776V10.0018ZM20.8718 8.86871C20.8718 7.99835 20.8369 7.01006 20.3632 6.18796L18.7372 7.12482C18.9297 7.45882 18.9953 7.96291 18.9953 8.86871H20.8718ZM20.3625 6.18685C19.8963 5.38016 19.0394 4.78575 18.0475 4.8618L18.191 6.73285C18.3046 6.72414 18.5456 6.79329 18.7379 7.12593L20.3625 6.18685ZM25.6164 14.8565C25.6509 14.5112 25.695 14.1278 25.7403 13.7355C25.7851 13.3465 25.8311 12.9484 25.8674 12.5866L24.0003 12.399C23.9656 12.7445 23.9213 13.128 23.8761 13.5205C23.8312 13.9097 23.7853 14.3078 23.7491 14.6699L25.6164 14.8565ZM25.3487 17.1505C25.4105 16.5701 25.5536 15.4842 25.6164 14.8565L23.7491 14.6699C23.6778 15.3832 23.5636 16.1921 23.4827 16.9518L25.3487 17.1505ZM21.8789 17.3312C21.6085 17.666 21.5634 18.0489 21.6254 18.3659C21.6753 18.6212 21.796 18.8357 21.8469 18.9275C21.9239 19.0667 21.9411 19.0941 21.9552 19.1288C21.9627 19.1474 21.9207 19.0573 21.9479 18.9151L23.791 19.2682C23.859 18.9133 23.7707 18.6126 23.6945 18.4245C23.6248 18.2523 23.5208 18.0767 23.4885 18.0185C23.43 17.9128 23.4533 17.9354 23.4671 18.006C23.4769 18.056 23.4852 18.1411 23.463 18.2453C23.44 18.3539 23.392 18.4443 23.3388 18.5101L21.8789 17.3312ZM24.2882 20.1375C24.7032 19.3703 25.0434 18.3636 25.2607 17.6025L23.4562 17.0874C23.251 17.8064 22.955 18.658 22.6377 19.2447L24.2882 20.1375ZM13.9987 10.0739C14.0434 10.03 14.0687 10.0358 14.01 10.0501C13.9486 10.0652 13.8478 10.0767 13.6933 10.0762C13.5405 10.0756 13.3758 10.064 13.1838 10.0495C13.0082 10.0362 12.7885 10.0185 12.5888 10.0185V11.8951C12.702 11.8951 12.8414 11.9055 13.0424 11.9207C13.227 11.9346 13.4564 11.9519 13.6865 11.9527C14.0839 11.9541 14.799 11.9186 15.3141 11.4122L13.9987 10.0739ZM18.1935 6.73274C18.8434 6.68108 19.2491 5.99482 18.9682 5.39786L17.2702 6.19689C16.9893 5.59997 17.395 4.91375 18.0448 4.8621L18.1935 6.73274ZM22.0049 10.0018C21.3791 10.0018 20.8718 9.49452 20.8718 8.86871H18.9953C18.9953 10.5309 20.3427 11.8784 22.0049 11.8784V10.0018ZM15.4317 18.4777C14.928 18.185 14.6181 17.6464 14.6181 17.0638L12.7416 17.0639C12.7416 18.3149 13.4071 19.4714 14.4887 20.1001L15.4317 18.4777ZM18.0475 4.8618C17.3967 4.9117 16.9887 5.59861 17.2702 6.19689L18.9682 5.39786C19.2497 5.99609 18.8417 6.68296 18.191 6.73285L18.0475 4.8618ZM19.6988 6.55884C19.525 6.26405 19.2125 6.09695 18.8904 6.09695V7.9735C18.5683 7.9735 18.2559 7.80644 18.0821 7.51171L19.6988 6.55884ZM14.618 15.1302C14.618 13.8727 15.1228 12.6678 16.0192 11.7859L14.7031 10.4482C13.4481 11.6829 12.7414 13.3698 12.7415 15.1303L14.618 15.1302ZM13.6545 21.0946C13.854 20.9768 14.0283 20.8822 14.1754 20.8328C14.245 20.8094 14.274 20.8085 14.2701 20.8086C14.2606 20.8088 14.1974 20.8078 14.1184 20.7633L15.0399 19.1286C14.4841 18.8152 13.9043 18.9442 13.5777 19.054C13.2238 19.1729 12.8981 19.362 12.7004 19.4787L13.6545 21.0946ZM18.0812 7.51026C18.2508 7.79915 18.5598 7.9735 18.8904 7.9735V6.09695C19.2208 6.09695 19.5298 6.27126 19.6994 6.56008L18.0812 7.51026Z" fill="url(#paint0_linear_902_9411)" mask="url(#path-1-outside-1_902_9411)"/>
<path d="M8.39028 1.34261C8.38174 1.25469 8.34776 1.18151 8.29829 1.12567M8.39028 1.34261C8.42539 1.69601 8.47056 2.0233 8.51332 2.33308C8.60771 3.0169 8.69032 3.61538 8.62689 4.22103C8.53025 5.15885 8.0287 5.7248 7.52184 6.29673C7.34918 6.49155 7.17592 6.68707 7.01782 6.89821C4.56515 10.1783 4.00301 14.6916 5.54969 18.5859L8.29829 1.12567M8.39028 1.34261L8.85721 1.29726C8.8572 1.29709 8.85718 1.29692 8.85716 1.29675M8.39028 1.34261L8.85711 1.29623C8.85713 1.2964 8.85715 1.29657 8.85716 1.29675M8.29829 1.12567C8.30454 1.08965 8.30664 1.0523 8.30411 1.01417L8.15006 1.02438M3.86353 21.694C3.1868 21.6991 2.87485 22.3841 3.0998 22.8866L3.10006 22.8872C3.76227 24.361 4.79352 25.357 6.0214 25.6912L6.02169 25.6913C7.08059 25.9788 8.18555 25.7369 9.10914 25.0807C9.12168 25.0718 9.13522 25.068 9.14586 25.0677C9.15556 25.0675 9.15947 25.07 9.16076 25.0709L9.1608 25.0709C9.16137 25.0713 9.16655 25.0746 9.17233 25.0902C9.1791 25.1085 9.18404 25.1382 9.1796 25.1749C9.16938 25.2594 9.12753 25.2894 9.11994 25.2928C8.91491 25.3837 8.70572 25.483 8.49409 25.5833C8.45706 25.6009 8.41995 25.6185 8.38278 25.6361C8.13077 25.7554 7.87093 25.8769 7.59157 25.9967L7.59097 25.997C7.31953 26.1138 7.13067 26.3456 7.08136 26.6253C7.03283 26.9006 7.12715 27.1776 7.32515 27.3782L7.32563 27.3787C8.47316 28.5376 9.82707 29.0532 11.0853 28.9075C11.8789 28.8161 12.5957 28.4541 13.1646 27.8921C13.5858 27.4761 14.1111 27.2534 14.5853 27.3352C14.8368 27.3833 15.0788 27.3267 15.267 27.1797C15.4467 27.0392 15.5479 26.84 15.5816 26.6459C15.6153 26.4518 15.5872 26.2302 15.4654 26.0374C15.3381 25.8359 15.1299 25.701 14.8774 25.6612C10.856 24.9528 7.49023 22.2099 5.98583 18.4131L5.98569 18.4127C4.49729 14.6652 5.04162 10.3246 7.39336 7.17939C7.53554 6.9895 7.69309 6.81084 7.86462 6.61727L7.87765 6.60257C8.04149 6.41771 8.21861 6.21786 8.38148 6.00218C8.72381 5.54885 9.01727 5.00806 9.09348 4.26978M3.86353 21.694C3.86374 21.694 3.86395 21.694 3.86416 21.694L3.86737 22.1631L3.86221 21.694C3.86265 21.694 3.86309 21.694 3.86353 21.694ZM3.86353 21.694C4.25243 21.6897 4.59545 21.6676 4.93301 21.646C5.12177 21.6338 5.30883 21.6218 5.50124 21.6131C5.51115 21.6126 5.565 21.5981 5.60863 21.5176C5.62761 21.4825 5.63483 21.4502 5.63542 21.428C5.63594 21.4084 5.63159 21.4018 5.63082 21.4006L5.63078 21.4005C5.62916 21.398 5.62537 21.3934 5.61529 21.3896C5.6044 21.3854 5.58951 21.3836 5.57367 21.3871C4.46024 21.6337 3.34411 21.4234 2.47936 20.74L2.76971 20.3715L2.47876 20.7395C2.47894 20.7397 2.47913 20.7398 2.47932 20.74C1.47687 19.9501 0.928863 18.6266 0.892928 17.0157C0.887142 16.7642 0.981442 16.492 1.2105 16.3132C1.45196 16.1247 1.75941 16.1044 2.04048 16.2055L2.04253 16.2062C2.25325 16.2832 2.4633 16.357 2.66841 16.4292C2.9748 16.5369 3.27019 16.6408 3.54038 16.7453C3.54784 16.7482 3.59253 16.7563 3.65235 16.7076C3.7118 16.6592 3.70659 16.6206 3.70659 16.6206C3.70606 16.6179 3.7045 16.6128 3.69705 16.6059C3.68886 16.5983 3.67556 16.5908 3.65844 16.5879C2.53806 16.4013 1.58314 15.7924 1.03525 14.8406C0.400794 13.7393 0.357146 12.2978 0.948557 10.7863L0.949034 10.7851L0.949036 10.7851C1.15525 10.2624 1.84809 10.0388 2.31807 10.4744C2.52669 10.6667 2.72826 10.8441 2.92447 11.0161C2.93831 11.0283 2.95214 11.0404 2.96595 11.0525C3.14663 11.2109 3.32414 11.3665 3.49273 11.5213C3.50178 11.5296 3.54707 11.555 3.62775 11.5301C3.70795 11.5053 3.72052 11.4635 3.72099 11.4612C3.72193 11.4564 3.72211 11.4487 3.71707 11.4375C3.71169 11.4256 3.70148 11.4127 3.68663 11.4031C2.68279 10.7547 2.03482 9.75781 1.94252 8.6169L1.94251 8.6167C1.84072 7.35189 2.40766 6.02735 3.59566 4.91432L3.59586 4.91413C4.0271 4.51058 4.73835 4.65968 4.96622 5.21422L4.96661 5.21515C5.06899 5.46586 5.1708 5.70187 5.27006 5.9312C5.2763 5.94561 5.28253 5.96 5.28875 5.97437C5.38093 6.1873 5.47137 6.39619 5.55509 6.60044L5.5551 6.60048C5.55533 6.60109 5.55748 6.6067 5.57022 6.61526C5.58493 6.62515 5.60882 6.63505 5.63849 6.63842C5.66821 6.64179 5.69155 6.63725 5.7047 6.63207C5.71069 6.62972 5.71345 6.62771 5.71411 6.6272C5.71419 6.62713 5.71425 6.62708 5.71429 6.62705C5.71458 6.62621 5.71507 6.6241 5.7149 6.62017C5.71456 6.61236 5.71157 6.60263 5.70531 6.5941C5.08771 5.75338 4.82823 4.7443 5.02571 3.74517C5.26917 2.49514 6.18905 1.40296 7.60428 0.637228C7.60723 0.635553 7.61021 0.633906 7.6132 0.63229C8.10543 0.366572 8.79351 0.644853 8.85716 1.29675M8.85716 1.29675C8.89175 1.64474 8.93421 1.95155 8.97584 2.2523C9.00198 2.44121 9.0278 2.62773 9.05112 2.82056C9.10911 3.29997 9.14505 3.77733 9.09348 4.26978M9.09348 4.26978C9.09351 4.26956 9.09353 4.26934 9.09355 4.26911L8.6269 4.22103L9.09347 4.2699C9.09347 4.26986 9.09348 4.26982 9.09348 4.26978ZM10.8438 26.5252C11.2841 26.4748 11.6305 26.5181 12.0053 26.6553C11.6762 27.0163 11.2986 27.2231 10.898 27.2693L10.8978 27.2693C10.8413 27.2758 10.7827 27.2789 10.7223 27.2784C10.5804 27.2773 10.5205 27.2297 10.491 27.1946C10.4535 27.1501 10.4225 27.0719 10.4274 26.9661C10.4373 26.7518 10.5792 26.5548 10.8426 26.5253L10.8438 26.5252ZM3.58583 8.48447C3.55609 8.11125 3.67928 7.6588 3.97933 7.15727C4.02457 7.26258 4.06827 7.36613 4.11032 7.46959C4.24505 7.8011 4.33963 8.07782 4.38093 8.30759L4.38106 8.30835C4.41107 8.47371 4.36935 8.57952 4.3126 8.65132C4.2483 8.73266 4.14212 8.79663 4.01809 8.82046C3.89318 8.84447 3.78783 8.82112 3.7222 8.77936C3.67002 8.74615 3.60483 8.67876 3.58828 8.51165L3.58587 8.48487C3.58586 8.48473 3.58584 8.4846 3.58583 8.48447ZM7.36753 1.07006C7.36296 0.984344 7.38178 0.902768 7.41834 0.831532C7.38135 0.903855 7.36306 0.985868 7.36753 1.07006Z" stroke="url(#paint1_linear_902_9411)" stroke-width="0.938272"/>
<mask id="path-4-outside-2_902_9411" maskUnits="userSpaceOnUse" x="17.8984" y="0" width="17" height="30" fill="black">
<rect fill="white" x="17.8984" width="17" height="30"/>
<path d="M21.2959 26.4679C21.2959 26.4679 21.2959 26.468 21.2959 26.468C21.7401 27.1803 22.3476 27.6517 23.0726 27.7353C23.1497 27.7442 23.2281 27.7483 23.3078 27.7475C24.371 27.7376 24.2926 26.1775 23.2359 26.0591C22.4883 25.9735 21.9539 26.1267 21.2959 26.4679C21.2958 26.4679 21.2958 26.4679 21.2959 26.4679ZM27.5624 22.854C27.5624 22.8539 27.5624 22.8539 27.5624 22.8539C27.1404 22.8963 26.7812 23.0196 26.4374 23.2432C25.9057 23.5889 26.0059 24.3943 26.6202 24.5518C26.979 24.6438 27.3413 24.6492 27.6942 24.5534C28.0962 24.4445 28.4832 24.1893 28.8409 23.813C29.2124 23.4223 28.8993 22.8134 28.3602 22.8136C28.1129 22.8137 27.8507 22.8245 27.5624 22.854C27.5624 22.854 27.5624 22.854 27.5624 22.854ZM31.8481 17.5372C31.8481 17.5372 31.8481 17.5372 31.8481 17.5372C31.0769 17.816 30.3373 18.0425 29.8578 18.348C28.849 18.9963 29.8289 20.5599 30.7857 19.8371C30.7957 19.8296 30.8057 19.8219 30.8156 19.8141C31.3688 19.3765 31.7206 18.5723 31.8482 17.5372C31.8482 17.5372 31.8481 17.5372 31.8481 17.5372ZM32.0807 11.7551C32.0807 11.7551 32.0807 11.7551 32.0807 11.7551C31.4693 12.2998 30.8658 12.7836 30.5353 13.2464C29.8368 14.2203 31.3335 15.3101 31.9487 14.2816C31.9545 14.2717 31.9603 14.2619 31.966 14.2519C32.3201 13.6383 32.3451 12.7629 32.0807 11.7551C32.0807 11.7551 32.0807 11.7551 32.0807 11.7551ZM29.9441 6.21357C29.9441 6.21357 29.9441 6.21358 29.9441 6.21358C29.6232 6.96985 29.2845 7.6653 29.1815 8.2246C28.9674 9.40438 30.7845 9.75124 30.9027 8.55804C30.9039 8.54615 30.905 8.53423 30.9059 8.52229C30.964 7.81852 30.612 7.01404 29.9441 6.21356C29.9441 6.21355 29.9441 6.21356 29.9441 6.21357ZMnan nanL26.2904 2.01344C26.1874 2.82628 26.1119 3.5874 26.1664 4.15252C26.2763 5.33168 28.0439 5.20425 27.8534 4.03541C27.85 4.01443 27.8462 3.99346 27.8421 3.97249C27.7068 3.27859 27.1512 2.60028 26.2904 2.01344Lnan nanZM26.1899 1.0452C26.1899 1.04524 26.1899 1.04527 26.19 1.04529C27.5243 1.76594 28.3285 2.75913 28.5406 3.83557C28.7077 4.69392 28.4886 5.57201 27.9412 6.31825C27.8189 6.48497 27.8057 6.7133 27.9204 6.88533C28.1484 7.22735 28.7474 7.15749 28.9033 6.77714C29.0778 6.35174 29.2829 5.90342 29.4916 5.39253C29.5946 5.14304 29.9168 5.07638 30.1077 5.25667C31.2155 6.29525 31.7038 7.48742 31.6137 8.57907C31.535 9.55813 30.9806 10.4307 30.0842 11.0094C29.903 11.1264 29.8021 11.3399 29.8438 11.5516C29.9274 11.9763 30.5318 12.1592 30.8505 11.8662C31.2031 11.5421 31.5978 11.2122 32.0248 10.8189C32.2344 10.6242 32.5465 10.7179 32.6402 10.9572C33.1917 12.3706 33.1288 13.6574 32.5818 14.6064C32.1123 15.4225 31.2883 15.9589 30.2896 16.1253C30.0764 16.1608 29.9001 16.3184 29.8591 16.5306C29.7783 16.948 30.2581 17.3355 30.6547 17.1824C31.1043 17.0087 31.5961 16.847 32.1442 16.6469C32.4624 16.5315 32.67 16.7391 32.6634 17.0052C32.628 18.5221 32.1147 19.6933 31.2556 20.3715C30.5147 20.9573 29.547 21.1488 28.5546 20.9294C28.3424 20.8825 28.1179 20.9646 27.9995 21.1467C27.7655 21.5066 28.0726 22.0622 28.5014 22.0817C29.0043 22.1045 29.5431 22.1564 30.1577 22.1631C30.4534 22.1651 30.6022 22.4608 30.4951 22.6949C29.8731 24.0797 28.9366 24.9511 27.8785 25.2386C26.9722 25.4851 26.0101 25.283 25.1855 24.6978C25.0088 24.5724 24.7714 24.562 24.5943 24.6868C24.2491 24.9303 24.3273 25.5502 24.7135 25.7215C25.1816 25.9293 25.6714 26.1811 26.2485 26.4279C26.5166 26.5433 26.5606 26.8493 26.3639 27.0486C25.2975 28.1271 24.0801 28.5675 22.9907 28.4415C22.3088 28.3629 21.6881 28.0522 21.1897 27.5596C20.7018 27.0773 20.0293 26.7543 19.3538 26.8738C18.845 26.9743 18.7086 26.2014 19.2242 26.1241C23.408 25.3888 26.9085 22.5358 28.4755 18.5859C30.0194 14.6916 29.46 10.1783 27.0066 6.89821C26.3844 6.06721 25.5261 5.4783 25.396 4.22103C25.3059 3.34103 25.5195 2.47615 25.6326 1.34261C25.6622 1.05401 25.9634 0.924208 26.1899 1.04511C26.1899 1.04513 26.1899 1.04517 26.1899 1.0452Z"/>
</mask>
<path d="M23.0726 27.7353L23.1806 26.8033L23.18 26.8032L23.0726 27.7353ZM27.6942 24.5534L27.4489 23.6478L27.4484 23.6479L27.6942 24.5534ZM30.8156 19.8141L31.3951 20.5521L31.3977 20.55L30.8156 19.8141ZM31.966 14.2519L31.1533 13.783L31.1526 13.7843L31.966 14.2519ZM30.9059 8.52229L29.9708 8.44512L29.9707 8.44658L30.9059 8.52229ZM27.8421 3.97249L26.9212 4.15212L26.9214 4.15289L27.8421 3.97249ZM28.5406 3.83557L29.4615 3.65623L29.4611 3.65419L28.5406 3.83557ZM29.4916 5.39253L28.6243 5.03439L28.6229 5.03778L29.4916 5.39253ZM30.1077 5.25667L29.4635 5.93882L29.466 5.94117L30.1077 5.25667ZM31.6137 8.57907L30.6786 8.50188L30.6785 8.50384L31.6137 8.57907ZM32.0248 10.8189L32.6605 11.509L32.6634 11.5063L32.0248 10.8189ZM32.6402 10.9572L33.5143 10.6162L33.5139 10.6153L32.6402 10.9572ZM32.5818 14.6064L31.7689 14.1378L31.7686 14.1385L32.5818 14.6064ZM32.1442 16.6469L31.8243 15.7649L31.8225 15.7655L32.1442 16.6469ZM32.6634 17.0052L31.7254 16.9821L31.7254 16.9834L32.6634 17.0052ZM31.2556 20.3715L30.6742 19.6351L30.6737 19.6355L31.2556 20.3715ZM30.1577 22.1631L30.1474 23.1013L30.1513 23.1014L30.1577 22.1631ZM30.4951 22.6949L29.6418 22.3047L29.6392 22.3105L30.4951 22.6949ZM27.8785 25.2386L27.6325 24.3331L27.6322 24.3332L27.8785 25.2386ZM26.2485 26.4279L26.6194 25.566L26.6174 25.5652L26.2485 26.4279ZM26.3639 27.0486L27.0311 27.7083L27.0316 27.7078L26.3639 27.0486ZM22.9907 28.4415L23.0985 27.5094L23.0982 27.5094L22.9907 28.4415ZM19.2242 26.1241L19.3634 27.052L19.375 27.0502L19.3867 27.0482L19.2242 26.1241ZM28.4755 18.5859L29.3476 18.9319L29.3477 18.9317L28.4755 18.5859ZM27.0066 6.89821L27.7579 6.33622L27.7576 6.33586L27.0066 6.89821ZM25.396 4.22103L24.4626 4.31664L24.4627 4.31758L25.396 4.22103ZM25.6326 1.34261L24.6992 1.24706L24.699 1.24943L25.6326 1.34261ZM28.5014 22.0817L28.4588 23.019L28.5014 22.0817ZM30.6547 17.1824L30.9927 18.0576L30.6547 17.1824ZM26.19 1.04529L26.6358 0.219735L26.19 1.04529ZM29.9441 6.21356L30.6646 5.61246L29.9441 6.21356ZM29.9441 6.21358L30.8078 6.58012L29.9441 6.21358ZM32.0807 11.7551L32.9883 11.517L32.0807 11.7551ZM26.1899 1.04511L25.7481 1.87284L26.1899 1.04511ZM30.0842 11.0094L29.5753 10.2212L30.0842 11.0094ZM31.8482 17.5372L30.9169 17.4225L31.8482 17.5372ZM28.9033 6.77714L29.7715 7.13306L28.9033 6.77714ZM21.1897 27.5596L20.5301 28.2269L21.1897 27.5596ZM31.8481 17.5372L32.1671 18.4196L31.8481 17.5372ZM27.9412 6.31825L28.6978 6.87318L27.9412 6.31825ZM27.5624 22.854L27.4669 21.9206L27.5624 22.854ZM28.8409 23.813L28.1609 23.1665L28.8409 23.813ZM28.3602 22.8136L28.3598 21.8753L28.3602 22.8136ZM24.7135 25.7215L25.0941 24.8639L24.7135 25.7215ZM26.6202 24.5518L26.3873 25.4607L26.6202 24.5518ZM32.0807 11.7551L31.4565 11.0545L32.0807 11.7551ZM27.8534 4.03541L26.9274 4.18635L27.8534 4.03541ZM21.2959 26.4679L21.7277 27.3009L21.2959 26.4679ZM23.3078 27.7475L23.3166 28.6858L23.3078 27.7475ZM25.1855 24.6978L25.7285 23.9326L25.1855 24.6978ZM27.5624 22.8539L27.656 23.7875L27.5624 22.8539ZM28.5546 20.9294L28.3521 21.8456L28.5546 20.9294ZM21.2959 26.468L20.4997 26.9644L21.2959 26.468ZM20.4997 26.9644C21.0433 27.8362 21.8714 28.5413 22.9651 28.6674L23.18 26.8032C22.8239 26.7621 22.4368 26.5245 22.0921 25.9715L20.4997 26.9644ZM22.9645 28.6673C23.0819 28.6809 23.1994 28.6869 23.3166 28.6858L23.2991 26.8093C23.2568 26.8097 23.2174 26.8075 23.1806 26.8033L22.9645 28.6673ZM23.3426 25.1269C22.3597 25.0143 21.6367 25.2344 20.8641 25.6349L21.7277 27.3009C22.2712 27.0191 22.6169 26.9326 23.1292 26.9913L23.3426 25.1269ZM27.4687 21.9204C26.9051 21.9769 26.4013 22.1474 25.9259 22.4566L26.9489 24.0298C27.161 23.8918 27.3756 23.8156 27.656 23.7875L27.4687 21.9204ZM26.3873 25.4607C26.8879 25.589 27.4159 25.6011 27.9399 25.4589L27.4484 23.6479C27.2667 23.6972 27.0701 23.6985 26.8532 23.6429L26.3873 25.4607ZM27.9395 25.459C28.552 25.2931 29.0812 24.922 29.5209 24.4595L28.1609 23.1665C27.8851 23.4566 27.6405 23.5959 27.4489 23.6478L27.9395 25.459ZM28.3598 21.8753C28.0846 21.8754 27.7904 21.8875 27.4669 21.9206L27.6579 23.7874C27.9109 23.7615 28.1412 23.752 28.3606 23.7519L28.3598 21.8753ZM31.5291 16.6548C31.1781 16.7817 30.7559 16.9242 30.4103 17.0555C30.0551 17.1904 29.677 17.3507 29.3536 17.5567L30.362 19.1393C30.5181 19.0398 30.7495 18.9341 31.0768 18.8097C31.4137 18.6817 31.7469 18.5715 32.1671 18.4196L31.5291 16.6548ZM31.3513 20.5858C31.366 20.5747 31.3806 20.5635 31.3951 20.5521L30.2361 19.0762C30.2308 19.0803 30.2255 19.0844 30.2202 19.0885L31.3513 20.5858ZM31.3977 20.55C32.2292 19.8923 32.6381 18.7983 32.7794 17.652L30.9169 17.4225C30.8031 18.3462 30.5085 18.8607 30.2335 19.0782L31.3977 20.55ZM31.4565 11.0545C31.1804 11.3005 30.8384 11.5918 30.5677 11.8406C30.2882 12.0976 29.9956 12.3877 29.7717 12.7012L31.2988 13.7917C31.4055 13.6423 31.5799 13.4591 31.8376 13.2222C32.1041 12.9773 32.3696 12.7543 32.7048 12.4556L31.4565 11.0545ZM32.7539 14.7632C32.7626 14.7487 32.7711 14.7341 32.7795 14.7195L31.1526 13.7843C31.1496 13.7896 31.1465 13.7948 31.1434 13.8L32.7539 14.7632ZM32.7788 14.7208C33.3114 13.7977 33.2803 12.6301 32.9883 11.517L31.1731 11.9932C31.4099 12.8956 31.3288 13.479 31.1533 13.783L32.7788 14.7208ZM29.0804 5.84704C28.9354 6.18863 28.7505 6.59905 28.612 6.93933C28.4689 7.29109 28.3283 7.67722 28.2588 8.0546L30.1042 8.3946C30.1378 8.21268 30.218 7.97144 30.3502 7.64657C30.487 7.31024 30.6318 6.9948 30.8078 6.58012L29.0804 5.84704ZM31.8364 8.65054C31.8382 8.63306 31.8397 8.61554 31.8412 8.59799L29.9707 8.44658C29.9702 8.45292 29.9696 8.45924 29.969 8.46554L31.8364 8.65054ZM31.841 8.59945C31.9285 7.53944 31.4009 6.49494 30.6646 5.61246L29.2237 6.81466C29.8232 7.53313 29.9995 8.09759 29.9708 8.44512L31.841 8.59945ZM25.3596 1.89545C25.2584 2.6941 25.1663 3.55716 25.2325 4.24266L27.1004 4.06239C27.0574 3.61764 27.1164 2.95845 27.2212 2.13142L25.3596 1.89545ZM28.7795 3.88447C28.7744 3.85364 28.7689 3.82284 28.7629 3.79209L26.9214 4.15289C26.9236 4.16407 26.9256 4.17522 26.9274 4.18635L28.7795 3.88447ZM28.763 3.79285C28.5594 2.74862 27.7702 1.88671 26.8189 1.23818L25.7619 2.78869C26.5322 3.31385 26.8542 3.80857 26.9212 4.15212L28.763 3.79285ZM25.7441 1.87085C26.9095 2.5003 27.4771 3.29149 27.62 4.01695L29.4611 3.65419C29.1799 2.22676 28.139 1.03159 26.6358 0.219735L25.7441 1.87085ZM27.6196 4.01491C27.7319 4.59183 27.5925 5.20722 27.1846 5.76332L28.6978 6.87318C29.3846 5.93679 29.6835 4.796 29.4615 3.65623L27.6196 4.01491ZM29.7715 7.13306C29.8545 6.93064 29.9453 6.7216 30.0457 6.48959C30.1448 6.2605 30.2518 6.01269 30.3602 5.74728L28.6229 5.03778C28.5227 5.28326 28.4227 5.51506 28.3235 5.74419C28.2256 5.97042 28.1266 6.19825 28.0352 6.42123L29.7715 7.13306ZM30.3588 5.75067C30.212 6.1062 29.7529 6.2122 29.4635 5.93881L30.7519 4.57453C30.0806 3.94056 28.9772 4.17988 28.6243 5.03439L30.3588 5.75067ZM29.466 5.94117C30.4163 6.83213 30.7399 7.75915 30.6786 8.50188L32.5488 8.65626C32.6677 7.21569 32.0147 5.75837 30.7494 4.57217L29.466 5.94117ZM30.6785 8.50384C30.6257 9.15931 30.2551 9.78222 29.5753 10.2212L30.5931 11.7977C31.7061 11.0791 32.4442 9.95695 32.549 8.6543L30.6785 8.50384ZM31.4855 12.557C31.6522 12.4038 31.8299 12.2482 32.0287 12.0736C32.2248 11.9015 32.4378 11.7141 32.6605 11.509L31.3891 10.1287C31.1847 10.317 30.9869 10.4912 30.7908 10.6634C30.5974 10.8331 30.4015 11.0045 30.2155 11.1755L31.4855 12.557ZM32.6634 11.5063C32.3548 11.7929 31.8972 11.6332 31.7664 11.2992L33.5139 10.6153C33.1958 9.8025 32.114 9.45543 31.3862 10.1314L32.6634 11.5063ZM31.7661 11.2983C32.2411 12.5157 32.1404 13.4934 31.7689 14.1378L33.3947 15.0749C34.1172 13.8215 34.1422 12.2255 33.5143 10.6162L31.7661 11.2983ZM31.7686 14.1385C31.4552 14.6832 30.8904 15.074 30.1354 15.1997L30.4438 17.0508C31.6863 16.8438 32.7695 16.1618 33.3951 15.0742L31.7686 14.1385ZM30.9927 18.0576C31.44 17.8849 31.8709 17.7455 32.466 17.5283L31.8225 15.7655C31.3214 15.9485 30.7685 16.1326 30.3167 16.3071L30.9927 18.0576ZM32.4642 17.529C32.3786 17.56 32.1584 17.5863 31.9491 17.4233C31.7639 17.2791 31.7228 17.0898 31.7254 16.9821L33.6014 17.0284C33.6106 16.6545 33.469 16.2284 33.1021 15.9427C32.7111 15.6382 32.2281 15.6184 31.8243 15.7649L32.4642 17.529ZM31.7254 16.9834C31.6944 18.3127 31.2508 19.1799 30.6742 19.6351L31.8371 21.1079C32.9786 20.2066 33.5617 18.7315 33.6014 17.0271L31.7254 16.9834ZM30.6737 19.6355C30.1796 20.0262 29.5078 20.1792 28.7571 20.0133L28.3521 21.8456C29.5861 22.1183 30.8498 21.8885 31.8375 21.1076L30.6737 19.6355ZM28.4588 23.019C28.8936 23.0387 29.5197 23.0944 30.1474 23.1013L30.168 21.2249C29.5664 21.2183 29.115 21.1703 28.544 21.1444L28.4588 23.019ZM30.1513 23.1014C29.957 23.1 29.7689 22.9884 29.6684 22.8172C29.5789 22.6649 29.5641 22.4746 29.6418 22.3047L31.3483 23.0852C31.7032 22.3092 31.2231 21.2321 30.1641 21.2249L30.1513 23.1014ZM29.6392 22.3105C29.097 23.5177 28.3462 24.1392 27.6325 24.3331L28.1244 26.144C29.527 25.763 30.6493 24.6418 31.351 23.0793L29.6392 22.3105ZM27.6322 24.3332C27.0289 24.4973 26.3529 24.3757 25.7285 23.9326L24.6425 25.4629C25.6674 26.1903 26.9155 26.4729 28.1247 26.1439L27.6322 24.3332ZM24.3329 26.5791C24.5535 26.6771 24.7787 26.7851 25.0388 26.9082C25.294 27.0289 25.5739 27.1599 25.8796 27.2906L26.6174 25.5652C26.346 25.4491 26.0925 25.3308 25.8415 25.212C25.5954 25.0955 25.3416 24.9737 25.0941 24.8639L24.3329 26.5791ZM25.8776 27.2897C25.7353 27.2285 25.5924 27.0789 25.5558 26.8658C25.5209 26.6628 25.597 26.4898 25.6962 26.3894L27.0316 27.7078C27.3274 27.4081 27.4799 26.9824 27.4052 26.5478C27.3287 26.103 27.0298 25.7426 26.6194 25.566L25.8776 27.2897ZM25.6967 26.3889C24.7902 27.3057 23.8459 27.5958 23.0985 27.5094L22.8829 29.3735C24.3143 29.5391 25.8048 28.9485 27.0311 27.7083L25.6967 26.3889ZM23.0982 27.5094C22.6382 27.4563 22.2083 27.2472 21.8493 26.8923L20.5301 28.2269C21.1678 28.8571 21.9794 29.2694 22.8833 29.3736L23.0982 27.5094ZM19.172 25.9533C19.2974 25.9286 19.4737 25.9532 19.6237 26.0703C19.7541 26.1721 19.8111 26.3013 19.8291 26.4042C19.8471 26.5072 19.8373 26.6491 19.7481 26.79C19.6456 26.9518 19.4876 27.0334 19.3634 27.052L19.0851 25.1962C18.7031 25.2535 18.3687 25.4606 18.1627 25.786C17.9699 26.0904 17.9293 26.4337 17.9805 26.7271C18.0318 27.0203 18.1861 27.3287 18.4691 27.5496C18.7716 27.7858 19.1557 27.8694 19.5356 27.7943L19.172 25.9533ZM19.3867 27.0482C23.8916 26.2564 27.6606 23.1844 29.3476 18.9319L27.6033 18.2399C26.1564 21.8872 22.9244 24.5211 19.0618 25.2L19.3867 27.0482ZM29.3477 18.9317C31.0076 14.7449 30.4133 9.88625 27.7579 6.33622L26.2552 7.46021C28.5067 10.4703 29.0312 14.6383 27.6033 18.2401L29.3477 18.9317ZM27.7576 6.33586C27.5753 6.09229 27.3795 5.8717 27.2128 5.68363C27.0378 5.48633 26.8935 5.32333 26.7652 5.15369C26.5249 4.83568 26.3716 4.533 26.3293 4.12448L24.4627 4.31758C24.5505 5.16633 24.8914 5.78673 25.2683 6.28525C25.4486 6.52387 25.6437 6.74249 25.8087 6.92862C25.9819 7.12398 26.1268 7.28863 26.2555 7.46057L27.7576 6.33586ZM26.3294 4.12541C26.2949 3.78892 26.3161 3.43387 26.3697 2.98894C26.4181 2.58588 26.5099 2.00079 26.5663 1.43579L24.699 1.24943C24.6423 1.81797 24.5706 2.23208 24.5065 2.76485C24.4475 3.25574 24.407 3.77314 24.4626 4.31664L26.3294 4.12541ZM26.566 1.43816C26.5467 1.62738 26.4239 1.79643 26.2555 1.88027C26.1023 1.9565 25.9135 1.96117 25.7481 1.87284L26.6317 0.217386C25.8716 -0.188371 24.8029 0.234426 24.6992 1.24707L26.566 1.43816ZM27.2129 20.6353C26.8597 21.1784 26.9594 21.788 27.1773 22.1894C27.3947 22.5901 27.8391 22.9908 28.4588 23.019L28.544 21.1444C28.7349 21.153 28.8113 21.2663 28.8265 21.2943C28.8422 21.3231 28.9053 21.4749 28.7861 21.6582L27.2129 20.6353ZM28.9379 16.3523C28.8165 16.9794 29.1266 17.5056 29.4852 17.7978C29.8431 18.0894 30.4113 18.2821 30.9927 18.0576L30.3167 16.3071C30.5015 16.2357 30.6315 16.3112 30.6705 16.343C30.7103 16.3754 30.8208 16.4992 30.7802 16.7089L28.9379 16.3523ZM30.1354 15.1997C29.5727 15.2935 29.0604 15.7195 28.9379 16.3523L30.7802 16.7089C30.7399 16.9172 30.58 17.0281 30.4438 17.0508L30.1354 15.1997ZM28.9232 11.7328C29.0478 12.3655 29.5388 12.7376 29.9822 12.8745C30.4245 13.0111 31.0258 12.9796 31.4855 12.557L30.2155 11.1755C30.3566 11.0458 30.4963 11.0693 30.5358 11.0815C30.5764 11.0941 30.7234 11.1624 30.7644 11.3703L28.9232 11.7328ZM26.6358 0.219735C27.0267 0.430818 27.2227 0.893707 27.0841 1.32953L25.2958 0.760869C25.1572 1.19676 25.3532 1.65973 25.7441 1.87085L26.6358 0.219735ZM30.6646 5.61246C30.3516 5.2373 29.8677 5.20735 29.5337 5.3698C29.195 5.53457 28.9124 5.94763 29.033 6.43784L30.8552 5.98931C30.9758 6.4795 30.6933 6.89255 30.3545 7.05731C30.0206 7.21976 29.5367 7.1898 29.2237 6.81466L30.6646 5.61246ZM28.2583 8.0571C28.1578 8.61126 28.2946 9.1283 28.6074 9.52402C28.9051 9.90065 29.325 10.1227 29.7404 10.2026C30.154 10.2821 30.6379 10.2339 31.0575 9.96684C31.5041 9.6827 31.7809 9.21127 31.8364 8.65054L29.969 8.46554C29.9662 8.49353 29.9622 8.48447 29.9785 8.45695C29.9952 8.42867 30.0209 8.40218 30.0501 8.38362C30.0771 8.36646 30.0971 8.36218 30.1028 8.36127C30.108 8.36045 30.1046 8.36171 30.0947 8.35979C30.0849 8.3579 30.0766 8.35444 30.072 8.35176C30.0677 8.34928 30.0719 8.35068 30.0796 8.36041C30.0884 8.37153 30.0965 8.38713 30.1004 8.40321C30.1045 8.4196 30.0999 8.41872 30.1047 8.3921L28.2583 8.0571ZM30.8078 6.58012C30.8868 6.39405 30.9038 6.1868 30.8552 5.98931L29.033 6.43784C28.9844 6.24035 29.0014 6.0331 29.0804 5.84704L30.8078 6.58012ZM32.9883 11.517C32.7607 10.6496 31.4716 10.5296 31.1827 11.483L32.9786 12.0272C32.6897 12.9805 31.4007 12.8605 31.1731 11.9932L32.9883 11.517ZM25.7481 1.87284C25.3536 1.6623 25.157 1.19724 25.2958 0.760869L27.0841 1.32953C27.2229 0.893098 27.0262 0.427955 26.6317 0.217386L25.7481 1.87284ZM29.7728 12.6996C29.4444 13.1576 29.3469 13.6838 29.4609 14.1756C29.5694 14.6434 29.8546 15.0233 30.1961 15.2726C30.5361 15.5209 30.9942 15.6838 31.4876 15.6216C32.0128 15.5553 32.4645 15.247 32.7539 14.7632L31.1434 13.8C31.1291 13.8239 31.1295 13.8138 31.1562 13.7957C31.1836 13.7771 31.2183 13.7641 31.2526 13.7598C31.2843 13.7558 31.3042 13.7605 31.3097 13.7621C31.3146 13.7635 31.311 13.7632 31.3027 13.7571C31.2946 13.7512 31.2886 13.7445 31.2856 13.7402C31.2828 13.7362 31.2861 13.7394 31.289 13.7517C31.2923 13.7659 31.2929 13.7838 31.2895 13.8005C31.2861 13.8175 31.2821 13.815 31.2977 13.7933L29.7728 12.6996ZM29.5753 10.2212C29.1005 10.5277 28.8008 11.1112 28.9232 11.7328L30.7644 11.3703C30.8034 11.5686 30.7054 11.7252 30.5931 11.7977L29.5753 10.2212ZM32.7794 17.652C32.8724 16.8974 32.058 16.3252 31.3724 16.7285L32.3238 18.3459C31.6382 18.7492 30.8239 18.177 30.9169 17.4225L32.7794 17.652ZM29.3505 17.5587C28.8774 17.8627 28.5924 18.3145 28.5154 18.8124C28.442 19.2865 28.5647 19.7452 28.789 20.104C29.0123 20.4613 29.377 20.7826 29.8579 20.9083C30.3691 21.042 30.9023 20.925 31.3513 20.5858L30.2202 19.0885C30.1975 19.1056 30.201 19.0968 30.2316 19.0902C30.2631 19.0834 30.2995 19.0841 30.3326 19.0928C30.3632 19.1008 30.3798 19.1124 30.3845 19.1161C30.3887 19.1194 30.3856 19.1179 30.3803 19.1095C30.3751 19.1012 30.3721 19.093 30.371 19.0879C30.3699 19.0832 30.3717 19.0872 30.3699 19.0993C30.3677 19.1131 30.3619 19.1293 30.3531 19.1427C30.3441 19.1564 30.342 19.1522 30.365 19.1374L29.3505 17.5587ZM27.1397 7.40585C27.4958 7.93978 28.0905 8.08554 28.5438 8.03451C28.9964 7.98358 29.5338 7.71294 29.7715 7.13306L28.0352 6.42123C28.117 6.2217 28.2769 6.17616 28.334 6.16974C28.3919 6.16322 28.5731 6.1729 28.701 6.36482L27.1397 7.40585ZM21.8493 26.8923C21.2313 26.2814 20.268 25.7592 19.1903 25.9499L19.5173 27.7978C19.7906 27.7494 20.1723 27.8732 20.5301 28.2269L21.8493 26.8923ZM32.1671 18.4196C32.2213 18.4 32.2738 18.3753 32.3238 18.3459L31.3724 16.7285C31.4224 16.6991 31.4749 16.6744 31.5291 16.6548L32.1671 18.4196ZM27.1846 5.76332C26.8479 6.22239 26.7893 6.88033 27.1397 7.40585L28.701 6.36482C28.822 6.54628 28.7899 6.74755 28.6978 6.87318L27.1846 5.76332ZM27.4669 21.9206C28.0095 21.865 28.5006 22.2876 28.5006 22.854H26.6241C26.6241 23.4203 27.1152 23.8429 27.6579 23.7874L27.4669 21.9206ZM29.5209 24.4595C30.001 23.9546 30.0413 23.274 29.7834 22.7515C29.5328 22.2438 29.0017 21.8751 28.3598 21.8753L28.3606 23.7519C28.2578 23.7519 28.1528 23.6876 28.1007 23.582C28.0743 23.5286 28.0569 23.4559 28.0678 23.3719C28.0794 23.2822 28.1194 23.2102 28.1609 23.1665L29.5209 24.4595ZM24.0536 23.92C23.5269 24.2915 23.3941 24.8913 23.448 25.3424C23.5017 25.7926 23.7664 26.3277 24.3329 26.5791L25.0941 24.8639C25.2744 24.944 25.3069 25.0835 25.3113 25.1201C25.3158 25.1575 25.3165 25.3257 25.135 25.4537L24.0536 23.92ZM25.9259 22.4566C24.7873 23.1969 24.8925 25.0775 26.3873 25.4607L26.8532 23.6429C26.8867 23.6515 26.9341 23.6765 26.973 23.7223C27.0086 23.7642 27.0243 23.8082 27.029 23.8436C27.0386 23.9153 27.0058 23.9928 26.9489 24.0298L25.9259 22.4566ZM32.7048 12.4556C32.8334 12.3411 32.9284 12.193 32.9786 12.0272L31.1827 11.483C31.233 11.3172 31.3279 11.1691 31.4565 11.0545L32.7048 12.4556ZM25.2322 4.23956C25.3428 5.42694 26.3433 5.97025 27.1888 5.9104C27.6075 5.88076 28.0573 5.70599 28.3863 5.33672C28.734 4.94637 28.8678 4.42638 28.7795 3.88447L26.9274 4.18635C26.9322 4.2162 26.926 4.21065 26.9339 4.18135C26.942 4.15097 26.9595 4.1172 26.985 4.08855C27.0327 4.03506 27.0694 4.03761 27.0563 4.03854C27.0448 4.03935 27.0505 4.03351 27.0714 4.04941C27.084 4.059 27.095 4.07191 27.1018 4.08428C27.1086 4.0968 27.1034 4.09452 27.1006 4.06548L25.2322 4.23956ZM20.8641 25.6349C20.2782 25.9386 20.1674 26.76 20.7042 27.1961L21.8875 25.7397C22.4243 26.1758 22.3135 26.9972 21.7277 27.3009L20.8641 25.6349ZM23.3166 28.6858C23.8308 28.681 24.2942 28.478 24.612 28.0998C24.9139 27.7406 25.0225 27.2981 25.0041 26.9006C24.9675 26.1107 24.3997 25.2453 23.3404 25.1266L23.1314 26.9915C23.149 26.9935 23.1509 26.9965 23.1442 26.993C23.138 26.9897 23.1325 26.985 23.1291 26.981C23.1253 26.9765 23.1292 26.9806 23.1296 26.9874C23.13 26.996 23.1248 26.9527 23.1754 26.8925C23.202 26.8609 23.2354 26.8361 23.2687 26.8212C23.3012 26.8066 23.3159 26.8091 23.2991 26.8093L23.3166 28.6858ZM25.7285 23.9326C25.2582 23.5989 24.5855 23.545 24.0536 23.92L25.135 25.4537C24.9572 25.579 24.7595 25.5459 24.6425 25.4629L25.7285 23.9326ZM27.656 23.7875C27.1137 23.8419 26.6241 23.4193 26.6241 22.854H28.5006C28.5006 22.2886 28.0111 21.866 27.4687 21.9204L27.656 23.7875ZM28.7571 20.0133C28.196 19.8893 27.5623 20.0979 27.2129 20.6353L28.7861 21.6582C28.6736 21.8312 28.4889 21.8758 28.3521 21.8456L28.7571 20.0133ZM22.0921 25.9715C22.0375 25.8841 21.9686 25.8056 21.8875 25.7397L20.7042 27.1961C20.6231 27.1303 20.5542 27.0518 20.4997 26.9644L22.0921 25.9715Z" fill="url(#paint2_linear_902_9411)" mask="url(#path-4-outside-2_902_9411)"/>
<defs>
<linearGradient id="paint0_linear_902_9411" x1="6.21085" y1="5.79371" x2="27.1113" y2="6.29912" gradientUnits="userSpaceOnUse">
<stop stop-color="#0091FF"/>
<stop offset="1" stop-color="white" stop-opacity="0.81"/>
</linearGradient>
<linearGradient id="paint1_linear_902_9411" x1="-1.56126" y1="1.00001" x2="17.0662" y2="1.21413" gradientUnits="userSpaceOnUse">
<stop stop-color="#0091FF"/>
<stop offset="1" stop-color="white" stop-opacity="0.81"/>
</linearGradient>
<linearGradient id="paint2_linear_902_9411" x1="16.3372" y1="1.00001" x2="34.9647" y2="1.21413" gradientUnits="userSpaceOnUse">
<stop stop-color="#0091FF"/>
<stop offset="1" stop-color="white" stop-opacity="0.81"/>
</linearGradient>
</defs>
</svg>
