<svg width="29" height="29" viewBox="0 0 29 29" fill="none" xmlns="http://www.w3.org/2000/svg">
<path d="M5.10599 28.0245C5.10597 28.0245 5.10602 28.0244 5.10611 28.0244H24.1043C26.3682 28.0244 28.2099 26.1827 28.2099 23.9184V10.1872C28.2099 7.92303 26.3682 6.08114 24.1038 6.08114H19.8715C19.2958 6.08114 18.8291 5.61442 18.8291 5.0387V5.0387C18.8291 2.70984 16.934 0.814819 14.6049 0.814819C12.2759 0.814819 10.3808 2.70989 10.3808 5.03891V5.03891C10.3808 5.61464 9.9141 6.08136 9.33838 6.08136H5.10605C2.84174 6.08115 1 7.92325 1 10.1872V23.9189C1 26.183 2.84159 28.0246 5.10587 28.0247C5.10596 28.0247 5.10602 28.0246 5.10599 28.0245V28.0245ZM11.2584 5.03864C11.2584 3.19356 12.7595 1.69206 14.605 1.69206C16.4505 1.69206 17.9516 3.19319 17.9516 5.03864V5.03864C17.9516 5.61437 17.4849 6.08109 16.9091 6.08109H12.3006C11.7249 6.08109 11.2583 5.61433 11.2584 5.03864V5.03864ZM1.878 10.1868C1.878 8.40671 3.32617 6.95855 5.1061 6.95855H24.1039C25.884 6.95855 27.332 8.40671 27.332 10.1868V23.9186C27.332 25.6987 25.8838 27.1469 24.1039 27.1469L5.1061 27.1466C3.32596 27.1466 1.878 25.6985 1.878 23.9184V10.1872V10.1868Z" stroke="url(#paint0_linear_902_9406)" stroke-width="0.938272"/>
<defs>
<linearGradient id="paint0_linear_902_9406" x1="-3.93366" y1="0.814829" x2="31.9346" y2="1.61639" gradientUnits="userSpaceOnUse">
<stop stop-color="#0091FF"/>
<stop offset="1" stop-color="white" stop-opacity="0.81"/>
</linearGradient>
</defs>
</svg>
